<?xml version="1.0" standalone="no"?>
<!DOCTYPE svg PUBLIC "-//W3C//DTD SVG 20010904//EN"
 "http://www.w3.org/TR/2001/REC-SVG-20010904/DTD/svg10.dtd">
<svg version="1.0" xmlns="http://www.w3.org/2000/svg"
 width="260.000000pt" height="260.000000pt" viewBox="0 0 260.000000 260.000000"
 preserveAspectRatio="xMidYMid meet">
<metadata>
Created by potrace 1.11, written by Peter Selinger 2001-2013
</metadata>
<g transform="translate(0.000000,260.000000) scale(0.100000,-0.100000)"
fill="#000000" stroke="none">
<path d="M0 1300 l0 -1300 1300 0 1300 0 0 1300 0 1300 -1300 0 -1300 0 0
-1300z m1603 986 c10 -8 30 -38 45 -67 l27 -54 250 -5 c279 -6 290 -8 342 -77
l28 -36 3 -670 c2 -664 2 -670 -19 -714 -15 -30 -35 -52 -67 -71 -44 -25 -57
-27 -187 -32 l-140 -5 -145 -123 c-166 -142 -159 -143 -137 25 l13 102 -590 3
-591 3 -47 27 c-32 19 -52 41 -67 71 -21 44 -21 50 -19 714 l3 670 28 36 c52
69 63 71 342 77 l250 5 27 54 c15 29 35 59 45 67 26 20 580 20 606 0z"/>
<path d="M1185 1980 c-271 -58 -467 -286 -482 -560 -16 -289 169 -541 452
-615 77 -20 220 -19 299 1 202 52 378 228 431 430 19 73 19 232 1 302 -52 194
-198 352 -386 419 -82 28 -238 40 -315 23z m33 -192 c26 -26 7 -78 -28 -78 -9
0 -25 9 -35 20 -37 41 24 97 63 58z m319 -22 c25 -21 28 -31 28 -81 0 -50 -3
-60 -28 -81 -37 -32 -60 -30 -90 6 -14 17 -28 30 -31 30 -7 0 -14 -47 -21
-142 -6 -74 -6 -78 14 -78 19 0 21 -6 21 -50 0 -43 -3 -50 -19 -50 -11 0 -22
-4 -25 -8 -2 -4 -10 -66 -17 -137 -7 -87 -16 -136 -26 -147 -32 -36 -156 -55
-188 -28 -19 16 -19 49 1 78 16 24 43 152 44 210 0 26 -4 32 -21 32 -18 0 -20
5 -17 48 3 39 6 47 25 50 18 3 24 15 38 80 22 106 34 141 61 184 60 96 188
138 251 84z m-398 -102 c42 -35 44 -98 5 -138 -59 -58 -164 -14 -164 69 0 27
8 44 29 66 39 38 87 39 130 3z"/>
</g>
</svg>
