<?xml version="1.0" encoding="utf-8"?>
<!-- Generator: Adobe Illustrator 17.0.0, SVG Export Plug-In . SVG Version: 6.00 Build 0)  -->
<!DOCTYPE svg PUBLIC "-//W3C//DTD SVG 1.1//EN" "http://www.w3.org/Graphics/SVG/1.1/DTD/svg11.dtd">
<svg version="1.1" id="Layer_1" xmlns="http://www.w3.org/2000/svg" xmlns:xlink="http://www.w3.org/1999/xlink" x="0px" y="0px"
	 width="94.398px" height="94.467px" viewBox="0 0 94.398 94.467" enable-background="new 0 0 94.398 94.467" xml:space="preserve">
<g>
	<defs>
		<rect id="SVGID_1_" y="0" width="94.398" height="94.467"/>
	</defs>
	<clipPath id="SVGID_2_">
		<use xlink:href="#SVGID_1_"  overflow="visible"/>
	</clipPath>
	<path clip-path="url(#SVGID_2_)" d="M85.366,6.568H64.957l-1.319-2.559C62.896,1.795,61.644,0,59.184,0H35.216
		c-2.459,0-3.712,1.795-4.454,4.009l-1.318,2.559H9.031C4.043,6.568,0,10.207,0,14.698v59.193c0,4.492,4.043,8.131,9.031,8.131
		h53.143l-1.569,12.445l14.683-12.445h10.078c4.991,0,9.033-3.639,9.033-8.131V14.698C94.399,10.207,90.357,6.568,85.366,6.568
		 M47.298,71.532c-15.731,0-28.484-12.753-28.484-28.484c0-15.732,12.753-28.486,28.484-28.486
		c15.732,0,28.485,12.754,28.485,28.486C75.783,58.779,63.03,71.532,47.298,71.532"/>
	<path clip-path="url(#SVGID_2_)" d="M36.602,37.928c-2.548-0.024-4.595-2.107-4.57-4.655c0.022-2.548,2.108-4.595,4.656-4.572
		s4.594,2.108,4.57,4.656C41.235,35.906,39.15,37.951,36.602,37.928"/>
	<path clip-path="url(#SVGID_2_)" d="M41.907,27.797c-1.19-0.011-2.146-0.984-2.133-2.173c0.011-1.189,0.984-2.144,2.171-2.134
		c1.19,0.011,2.146,0.985,2.134,2.173C44.069,26.854,43.095,27.808,41.907,27.797"/>
	<path clip-path="url(#SVGID_2_)" d="M55.766,24.113c-3.199-0.164-5.404,1.256-6.275,1.879c-1.242,0.881-4.051,3.714-4.955,7.918
		c-0.638,2.961-1.075,4.704-1.513,7.436c-0.19,0.468-0.281,0.297-1.486,0.243c-0.837-0.041-0.723,0.467-0.837,1.227l-0.115,1.403
		c-0.037,0.505-0.076,1.012-0.076,1.267c0,0.72,0.29,0.808,0.993,0.808c1.141,0,1.091,0.372,0.991,1.311
		c-0.342,3.238-0.312,4.272-0.998,7.535c-0.306,1.483-0.355,1.888-1.307,2.866c-0.419,0.424-0.686,0.847-0.686,1.569
		c0,1.947,2.056,2.54,3.505,2.54c1.485,0,4.753-0.76,6.012-1.736c1.409-1.058,1.18-2.801,1.18-4.495l0.68-7.507
		c0.075-1.386,0-2.039,1.494-2.039c1.066,0,0.99-0.215,1.029-1.402l0.113-1.905c0.115-1.526,0.039-1.442-1.218-1.442
		c-0.472,0-0.672,0.02-0.809-0.087c0.037-0.455,0.043-0.948,0.013-1.488l0.571-6.861c0.038-0.382,0.266-2.162,0.799-2.162
		c0.304,0,0.647,0.764,0.761,1.02c0.649,1.228,1.182,1.822,2.553,1.822c2.591,0,3.732-2.5,3.732-5.085
		C59.917,26.076,58.238,24.244,55.766,24.113"/>
</g>
</svg>
