<?xml version="1.0" encoding="utf-8"?>
<!-- Generator: Adobe Illustrator 17.0.0, SVG Export Plug-In . SVG Version: 6.00 Build 0)  -->
<!DOCTYPE svg PUBLIC "-//W3C//DTD SVG 1.1//EN" "http://www.w3.org/Graphics/SVG/1.1/DTD/svg11.dtd">
<svg version="1.1" id="Layer_1" xmlns="http://www.w3.org/2000/svg" xmlns:xlink="http://www.w3.org/1999/xlink" x="0px" y="0px"
	 width="42.684px" height="59.82px" viewBox="0 0 42.684 59.82" enable-background="new 0 0 42.684 59.82" xml:space="preserve">
<g>
	<defs>
		<rect id="SVGID_1_" y="0" width="42.684" height="59.82"/>
	</defs>
	<clipPath id="SVGID_2_">
		<use xlink:href="#SVGID_1_"  overflow="visible"/>
	</clipPath>
	<path clip-path="url(#SVGID_2_)" d="M1.645,16.112C0.736,16.112,0,16.849,0,17.757v31.226C0,54.959,4.861,59.82,10.836,59.82h21.01
		c5.976,0,10.838-4.861,10.838-10.837V17.757c0-0.908-0.739-1.645-1.645-1.645h-8.205v-4.619C32.834,5.155,27.68,0,21.342,0
		S9.848,5.155,9.848,11.493v4.619H1.645z M31.846,56.531h-21.01c-4.162,0-7.547-3.386-7.547-7.548V19.401h6.559v11.651
		c0,0.908,0.738,1.645,1.644,1.645c0.908,0,1.645-0.737,1.645-1.645V19.401h16.408v11.651c0,0.908,0.738,1.645,1.645,1.645
		c0.908,0,1.644-0.737,1.644-1.645V19.401h6.561v29.582C39.395,53.145,36.008,56.531,31.846,56.531 M29.545,16.112H13.137v-4.619
		c0-4.524,3.681-8.204,8.205-8.204c4.523,0,8.203,3.68,8.203,8.204V16.112z"/>
</g>
</svg>
