<?xml version="1.0" encoding="utf-8"?>
<!-- Generator: Adobe Illustrator 17.0.0, SVG Export Plug-In . SVG Version: 6.00 Build 0)  -->
<!DOCTYPE svg PUBLIC "-//W3C//DTD SVG 1.1//EN" "http://www.w3.org/Graphics/SVG/1.1/DTD/svg11.dtd">
<svg version="1.1" id="Layer_1" xmlns="http://www.w3.org/2000/svg" xmlns:xlink="http://www.w3.org/1999/xlink" x="0px" y="0px"
	 width="61.233px" height="63.215px" viewBox="0 0 61.233 63.215" enable-background="new 0 0 61.233 63.215" xml:space="preserve">
<g>
	<defs>
		<rect id="SVGID_1_" y="0" width="61.233" height="63.215"/>
	</defs>
	<clipPath id="SVGID_2_">
		<use xlink:href="#SVGID_1_"  overflow="visible"/>
	</clipPath>
	<path clip-path="url(#SVGID_2_)" d="M49.919,39.384h-0.007c-1.875,0.002-3.655,0.629-5.098,1.782
		c-3.211-2.568-7.924-2.362-10.898,0.611c-3.194,3.194-3.194,8.39,0,11.582l9.113,9.114c0.472,0.475,1.101,0.739,1.773,0.742h0.012
		c0.668,0,1.299-0.26,1.777-0.735l9.133-9.103c1.547-1.55,2.399-3.61,2.397-5.801c-0.002-2.19-0.858-4.249-2.409-5.796
		C54.164,40.234,52.107,39.384,49.919,39.384 M53.603,51.255l-8.789,8.76l-8.777-8.777c-2.024-2.023-2.024-5.315,0-7.339
		c1.011-1.012,2.339-1.518,3.67-1.518c1.328,0,2.658,0.506,3.669,1.518l1.438,1.439l1.424-1.428
		c0.982-0.983,2.287-1.525,3.677-1.526h0.004c1.387,0,2.692,0.539,3.674,1.519c0.985,0.982,1.526,2.287,1.528,3.676
		C55.121,48.968,54.582,50.275,53.603,51.255"/>
	<path clip-path="url(#SVGID_2_)" d="M30.609,26.84c6.98,0,12.658-5.677,12.658-12.656S37.589,1.527,30.609,1.527
		c-6.979,0-12.656,5.678-12.656,12.657S23.63,26.84,30.609,26.84 M30.609,4.527c5.326,0,9.658,4.332,9.658,9.657
		c0,5.324-4.332,9.656-9.658,9.656c-5.324,0-9.656-4.332-9.656-9.656C20.953,8.859,25.285,4.527,30.609,4.527"/>
	<path clip-path="url(#SVGID_2_)" d="M33.257,55.525l-14.291,0.004l-1.125-19.347l-0.828-0.434
		c-3.956-2.285-7.348-5.528-9.799-9.361c-2.38-3.833-3.814-8.238-4.145-12.736c-0.206-2.87,0.048-5.74,0.749-8.511
		c0.105-0.389,0.295-0.761,0.553-1.077c0.488-0.598,1.179-0.97,1.948-1.048c0.1-0.01,0.198-0.014,0.297-0.014
		c0.663,0,1.3,0.224,1.804,0.636c0.831,0.701,1.209,1.799,0.975,2.916c-0.375,2.174-0.404,4.383-0.086,6.563
		c0.489,3.368,1.793,6.611,3.789,9.399c1.991,2.684,4.628,4.887,7.585,6.35c3.027,1.62,6.443,2.534,9.974,2.643
		c3.434-0.109,6.852-1.023,9.838-2.622c2.998-1.484,5.633-3.687,7.641-6.391c1.978-2.767,3.285-6.01,3.775-9.385
		c0.305-2.177,0.268-4.376-0.123-6.585c-0.222-1.064,0.155-2.162,0.975-2.854c0.324-0.268,0.693-0.459,1.096-0.568
		c1.543-0.415,3.123,0.499,3.541,2.031c0.711,2.79,0.968,5.659,0.767,8.518c-0.338,4.499-1.777,8.902-4.15,12.718
		c-2.362,3.684-5.571,6.808-9.315,9.072c0,0-3.014,1.947-3.514,2.114c1.026,0.155,2.004,0.458,2.95,0.919l0.711,0.346l0.687-0.391
		c4.444-2.527,8.25-6.138,11.016-10.459c2.641-4.241,4.234-9.114,4.607-14.102c0.225-3.191-0.064-6.382-0.855-9.487l-0.006-0.019
		c-0.844-3.135-4.082-5.002-7.219-4.156c-0.822,0.22-1.572,0.608-2.24,1.163c-1.676,1.414-2.437,3.625-1.996,5.723
		c0.326,1.852,0.359,3.736,0.098,5.592c-0.42,2.897-1.543,5.685-3.229,8.043c-1.711,2.304-3.975,4.195-6.59,5.492
		c-2.625,1.404-5.584,2.196-8.465,2.29c-2.976-0.094-5.935-0.886-8.601-2.311c-2.574-1.276-4.84-3.167-6.533-5.45
		c-1.703-2.379-2.825-5.167-3.245-8.065c-0.272-1.868-0.248-3.759,0.063-5.568c0.451-2.147-0.311-4.358-2.005-5.787
		C9.117,0.334,7.584-0.13,6.017,0.031C4.452,0.189,3.042,0.947,2.048,2.166C1.515,2.817,1.135,3.557,0.915,4.385
		c-0.785,3.101-1.067,6.29-0.838,9.484c0.367,4.981,1.953,9.857,4.598,14.118c2.592,4.052,6.116,7.494,10.268,10.018l1.062,18.313
		c0.072,1.234,1.096,2.205,2.338,2.211h17.965l-3.007-3.004H33.257z"/>
</g>
</svg>
