<?xml version="1.0" encoding="utf-8"?>
<!-- Generator: Adobe Illustrator 17.0.0, SVG Export Plug-In . SVG Version: 6.00 Build 0)  -->
<!DOCTYPE svg PUBLIC "-//W3C//DTD SVG 1.1//EN" "http://www.w3.org/Graphics/SVG/1.1/DTD/svg11.dtd">
<svg version="1.1" id="Layer_1" xmlns="http://www.w3.org/2000/svg" xmlns:xlink="http://www.w3.org/1999/xlink" x="0px" y="0px"
	 width="48.99px" height="56.179px" viewBox="0 0 48.99 56.179" enable-background="new 0 0 48.99 56.179" xml:space="preserve">
<g>
	<defs>
		<rect id="SVGID_1_" y="0" width="48.99" height="56.179"/>
	</defs>
	<clipPath id="SVGID_2_">
		<use xlink:href="#SVGID_1_"  overflow="visible"/>
	</clipPath>
	<path clip-path="url(#SVGID_2_)" d="M14.934,50.443v4.329c0,0.763,0.644,1.407,1.406,1.407h23.771c1.151,0,2.087-0.936,2.087-2.086
		v-7.665c0-0.763-0.644-1.407-1.407-1.407c-0.763,0-1.407,0.644-1.407,1.407v6.841H17.747v-4.815
		c-0.025-0.051-0.046-0.108-0.061-0.171c-0.05-0.077-0.087-0.159-0.109-0.257c-0.032-0.051-0.057-0.107-0.078-0.164
		c-0.04-0.06-0.071-0.124-0.095-0.19c-0.013-0.021-0.027-0.042-0.038-0.063l-0.357-0.357h-0.524v-0.193h-0.577l-5.876,0.873
		c-1.55,0-2.764-1.258-2.764-2.863v-7.665c0-0.762-0.645-1.407-1.408-1.407H3.92c-0.276,0-0.464-0.057-0.577-0.097H2.707v-0.727
		c0-0.269,0.124-0.518,0.269-0.806l4.179-8.068c0.164-0.253,0.209-0.406,0.209-0.636v-3.395c0-7.453,4.394-14.3,11.193-17.447
		c2.643-1.22,5.346-1.814,8.262-1.814c10.62,0,19.26,8.641,19.26,19.261c0,5.367-2.277,10.549-6.25,14.215
		c-0.555,0.556-0.584,1.482-0.046,2.087c0.547,0.544,1.473,0.575,2.078,0.036c4.526-4.243,7.129-10.204,7.129-16.338
		C48.99,10.082,39.042,0.093,26.813,0c-3.276,0-6.38,0.708-9.485,2.162C9.789,5.747,4.839,13.298,4.563,21.539h0.084v3.917
		l-4.06,7.726c-0.742,1.401-0.782,2.879-0.11,4.054c0.81,1.417,2.53,1.716,3.483,1.77l0.687,0.038v6.22
		c0,3.183,2.59,5.773,5.774,5.773h0.241L14.934,50.443z M19.096,47.916l0.009,0.064C19.104,47.96,19.102,47.939,19.096,47.916
		 M17.116,45.7h0.002H17.116z M26.625,13.877c2.224,0,4.449,0.846,6.143,2.539c1.615,1.615,2.542,3.855,2.542,6.143
		c0,2.288-0.927,4.526-2.542,6.142c-0.331,0.331-0.519,0.736-0.528,1.138c-0.008,0.382,0.146,0.75,0.431,1.035l0.001,0.001
		c0.282,0.282,0.688,0.465,1.036,0.465c0.405,0,0.706-0.136,1.038-0.466c2.177-2.178,3.377-5.097,3.377-8.219s-1.2-6.04-3.377-8.217
		c-2.162-2.163-5.063-3.354-8.17-3.354c-3.106,0-6.008,1.191-8.169,3.354c-4.505,4.504-4.505,11.835,0,16.339
		c0.593,0.592,1.487,0.59,2.076,0c0.591-0.592,0.591-1.485,0-2.076c-3.387-3.386-3.387-8.898,0-12.285
		C22.177,14.723,24.4,13.877,26.625,13.877"/>
</g>
</svg>
