<?xml version="1.0" encoding="utf-8"?>
<!-- Generator: Adobe Illustrator 17.0.0, SVG Export Plug-In . SVG Version: 6.00 Build 0)  -->
<!DOCTYPE svg PUBLIC "-//W3C//DTD SVG 1.1//EN" "http://www.w3.org/Graphics/SVG/1.1/DTD/svg11.dtd">
<svg version="1.1" id="Layer_1" xmlns="http://www.w3.org/2000/svg" xmlns:xlink="http://www.w3.org/1999/xlink" x="0px" y="0px"
	 width="54.554px" height="48.504px" viewBox="0 0 54.554 48.504" enable-background="new 0 0 54.554 48.504" xml:space="preserve">
<g>
	<defs>
		<rect id="SVGID_1_" y="0" width="54.554" height="48.504"/>
	</defs>
	<clipPath id="SVGID_2_">
		<use xlink:href="#SVGID_1_"  overflow="visible"/>
	</clipPath>
	<path clip-path="url(#SVGID_2_)" d="M37.838,3c7.563,0,13.716,6.153,13.716,13.717c0,4.171-1.868,8.066-5.126,10.689l-0.059,0.047
		l-0.056,0.051L27.267,44.485L8.044,27.346l-0.04-0.035l-0.041-0.035C4.809,24.658,3,20.81,3,16.717C3,9.153,9.152,3,16.716,3
		c3.195,0,6.191,1.067,8.664,3.085l1.896,1.548l1.898-1.548C31.647,4.067,34.643,3,37.838,3 M37.838,0
		c-4.007,0-7.682,1.411-10.562,3.761C24.398,1.411,20.722,0,16.716,0C7.484,0,0,7.484,0,16.717c0,5.176,2.353,9.802,6.048,12.868
		l21.219,18.919l21.042-18.761c3.806-3.064,6.245-7.76,6.245-13.026C54.554,7.484,47.069,0,37.838,0"/>
</g>
</svg>
