<?xml version="1.0" encoding="utf-8"?>
<!-- Generator: Adobe Illustrator 17.0.0, SVG Export Plug-In . SVG Version: 6.00 Build 0)  -->
<!DOCTYPE svg PUBLIC "-//W3C//DTD SVG 1.1//EN" "http://www.w3.org/Graphics/SVG/1.1/DTD/svg11.dtd">
<svg version="1.1" id="Layer_1" xmlns="http://www.w3.org/2000/svg" xmlns:xlink="http://www.w3.org/1999/xlink" x="0px" y="0px"
	 width="62.829px" height="88.542px" viewBox="0 0 62.829 88.542" enable-background="new 0 0 62.829 88.542" xml:space="preserve">
<g>
	<defs>
		<rect id="SVGID_1_" y="0" width="62.829" height="88.542"/>
	</defs>
	<clipPath id="SVGID_2_">
		<use xlink:href="#SVGID_1_"  overflow="visible"/>
	</clipPath>
	<path clip-path="url(#SVGID_2_)" d="M56.436,37.323L56.436,37.323L41.03,53.584l0.002-9.844c-0.025,0-0.049,0.002-0.074,0.002
		c-12.079,0-21.871-9.792-21.871-21.871S28.879,0,40.958,0s21.87,9.792,21.87,21.871C62.828,27.904,60.386,33.366,56.436,37.323
		 M38.791,29.971c0,1.204,1.008,2.24,2.239,2.24c1.233,0,2.24-1.036,2.24-2.24c0-1.231-1.007-2.267-2.24-2.267
		C39.799,27.704,38.791,28.74,38.791,29.971 M39.463,25.857h3.136l0.559-12.597h-4.311L39.463,25.857z"/>
	<path clip-path="url(#SVGID_2_)" d="M7.396,25.542C3.318,25.542,0,28.861,0,32.938v4.437V73.75v7.397
		c0,4.076,3.318,7.395,7.395,7.395h19.626c4.076,0,7.395-3.319,7.395-7.395V73.75V37.375v-4.437c0-4.077-3.319-7.396-7.395-7.396
		H7.396z M7.396,28.5h19.626c2.446,0,4.437,1.991,4.437,4.438v4.437h-28.5v-4.437C2.958,30.491,4.95,28.5,7.396,28.5 M11.167,31.459
		c-0.816,0-1.479,0.662-1.479,1.479s0.663,1.479,1.479,1.479c0.817,0,1.48-0.662,1.48-1.479S11.983,31.459,11.167,31.459
		 M17.083,31.459c-0.816,0-1.479,0.662-1.479,1.479c0,0.816,0.663,1.479,1.479,1.479H23c0.816,0,1.479-0.663,1.479-1.479
		c0-0.817-0.663-1.479-1.479-1.479H17.083z M2.958,40.334h28.5v30.458h-28.5V40.334z M2.958,73.75h28.5v7.397
		c0,2.446-1.991,4.437-4.437,4.437H7.396c-2.446,0-4.437-1.991-4.437-4.437V73.75z M17.083,77.584c-1.162,0-2.104,0.941-2.104,2.104
		c0,1.162,0.942,2.104,2.104,2.104c1.162,0,2.104-0.942,2.104-2.104C19.188,78.525,18.245,77.584,17.083,77.584"/>
</g>
</svg>
