<?xml version="1.0" encoding="utf-8"?>
<!-- Generator: Adobe Illustrator 17.0.0, SVG Export Plug-In . SVG Version: 6.00 Build 0)  -->
<!DOCTYPE svg PUBLIC "-//W3C//DTD SVG 1.1//EN" "http://www.w3.org/Graphics/SVG/1.1/DTD/svg11.dtd">
<svg version="1.1" id="Layer_1" xmlns="http://www.w3.org/2000/svg" xmlns:xlink="http://www.w3.org/1999/xlink" x="0px" y="0px"
	 width="105.198px" height="54px" viewBox="0 0 105.198 54" enable-background="new 0 0 105.198 54" xml:space="preserve">
<g>
	<defs>
		<rect id="SVGID_1_" width="105.198" height="54"/>
	</defs>
	<clipPath id="SVGID_2_">
		<use xlink:href="#SVGID_1_"  overflow="visible"/>
	</clipPath>
	<path clip-path="url(#SVGID_2_)" d="M103.924,28.273h-1.019V9.425c0-5.222-4.202-9.425-9.424-9.425H85.33
		c-5.222,0-9.425,4.203-9.425,9.425v18.848h-1.146c-0.764,0-1.273,0.51-1.273,1.274v2.038h-0.128h-4.84v-2.038
		c0-0.764-0.509-1.274-1.273-1.274h-1.147V9.425C66.098,4.203,61.896,0,56.674,0h-8.151c-5.222,0-9.425,4.203-9.425,9.425v18.848
		h-1.145c-0.765,0-1.274,0.51-1.274,1.274v2.038h-0.128h-4.712v-2.038c0-0.764-0.509-1.274-1.273-1.274H29.42V9.425
		C29.42,4.203,25.217,0,19.995,0h-8.151C6.622,0,2.42,4.203,2.42,9.425v18.848H1.273C0.509,28.273,0,28.783,0,29.547v3.566
		c0,2.292,1.91,4.203,4.203,4.203h8.023v14.137h-8.66c-0.765,0-1.274,0.509-1.274,1.273S2.801,54,3.566,54H13.5h4.712h31.967h4.712
		h31.967h4.713h10.06c0.765,0,1.274-0.51,1.274-1.274s-0.509-1.273-1.274-1.273h-8.66V37.316h8.024c2.293,0,4.203-1.911,4.203-4.203
		v-3.566C105.198,28.783,104.688,28.273,103.924,28.273 M78.325,9.425c0-3.822,3.056-6.878,6.878-6.878h8.15
		c3.821,0,6.878,3.056,6.878,6.878v18.848H78.325V9.425z M41.646,9.425c0-3.822,3.057-6.878,6.877-6.878h8.151
		c3.821,0,6.877,3.056,6.877,6.878v18.848H41.646V9.425z M4.967,9.425c0-3.822,3.056-6.878,6.877-6.878h8.151
		c3.821,0,6.877,3.056,6.877,6.878v18.848H4.967V9.425z M17.066,51.453h-2.165V37.316h2.165V51.453z M13.627,34.768H4.33
		c-0.891,0-1.656-0.763-1.656-1.655V30.82H3.82h24.581h1.146v2.293c0,0.892-0.764,1.655-1.656,1.655h-9.297H13.627z M49.033,51.453
		h-29.42V37.316h8.023c2.038,0,3.694-1.401,4.076-3.311h4.967h0.254c0.383,1.91,2.038,3.311,4.076,3.311h8.024V51.453z
		 M53.745,51.453H51.58V37.316h2.165V51.453z M50.306,34.768h-9.297c-0.891,0-1.656-0.763-1.656-1.655V30.82H40.5h24.58h0.891v2.293
		c0,0.892-0.763,1.655-1.655,1.655h-9.298H50.306z M85.712,51.453H56.293V37.316h8.023c2.037,0,3.693-1.401,4.075-3.311h4.84h0.255
		c0.382,1.91,2.037,3.311,4.075,3.311h8.024v14.137H85.712z M90.424,51.453h-2.165V37.316h2.165V51.453z M102.651,33.113
		c0,0.892-0.765,1.655-1.656,1.655h-9.297h-4.712h-9.298c-0.891,0-1.655-0.763-1.655-1.655V30.82h1.146h24.452h1.147v2.293H102.651z
		"/>
	<path clip-path="url(#SVGID_2_)" d="M43.04,10.187c0-3.335,2.668-6.003,6.002-6.003h7.114c3.334,0,6.002,2.668,6.002,6.003v16.45
		H43.04V10.187z"/>
</g>
</svg>
