<?xml version="1.0" encoding="utf-8"?>
<!-- Generator: Adobe Illustrator 17.0.0, SVG Export Plug-In . SVG Version: 6.00 Build 0)  -->
<!DOCTYPE svg PUBLIC "-//W3C//DTD SVG 1.1//EN" "http://www.w3.org/Graphics/SVG/1.1/DTD/svg11.dtd">
<svg version="1.1" id="Layer_1" xmlns="http://www.w3.org/2000/svg" xmlns:xlink="http://www.w3.org/1999/xlink" x="0px" y="0px"
	 width="65.215px" height="63.209px" viewBox="0 0 65.215 63.209" enable-background="new 0 0 65.215 63.209" xml:space="preserve">
<g>
	<defs>
		<rect id="SVGID_1_" y="0" width="65.215" height="63.209"/>
	</defs>
	<clipPath id="SVGID_2_">
		<use xlink:href="#SVGID_1_"  overflow="visible"/>
	</clipPath>
	<path clip-path="url(#SVGID_2_)" d="M65.042,46.563c0.024-0.046,0.048-0.092,0.067-0.14c0.017-0.043,0.028-0.089,0.042-0.134
		c0.015-0.054,0.031-0.11,0.041-0.166c0.003-0.015,0.009-0.029,0.012-0.044c0.003-0.032,0-0.063,0.003-0.094
		c0.005-0.057,0.009-0.112,0.007-0.168c-0.001-0.05-0.006-0.099-0.011-0.149c-0.006-0.05-0.013-0.101-0.025-0.152
		c-0.011-0.049-0.025-0.097-0.041-0.146c-0.016-0.047-0.032-0.095-0.053-0.142c-0.02-0.047-0.044-0.092-0.069-0.136
		c-0.024-0.044-0.049-0.087-0.078-0.129c-0.031-0.046-0.067-0.088-0.104-0.13c-0.02-0.024-0.037-0.051-0.059-0.075
		c-0.011-0.011-0.024-0.018-0.035-0.029c-0.04-0.039-0.085-0.074-0.13-0.109c-0.038-0.03-0.074-0.06-0.113-0.084
		c-0.043-0.029-0.09-0.051-0.136-0.075c-0.046-0.023-0.092-0.048-0.14-0.066c-0.044-0.018-0.089-0.028-0.134-0.042
		c-0.055-0.016-0.11-0.031-0.167-0.041c-0.014-0.003-0.028-0.009-0.044-0.011l-8.464-1.23L51.624,35.4
		c-0.006-0.014-0.016-0.025-0.023-0.038c-0.027-0.051-0.059-0.099-0.092-0.147c-0.025-0.038-0.051-0.077-0.08-0.113
		c-0.032-0.04-0.07-0.076-0.107-0.113c-0.036-0.036-0.073-0.074-0.112-0.106c-0.036-0.029-0.076-0.054-0.115-0.081
		c-0.047-0.032-0.094-0.064-0.144-0.091c-0.014-0.007-0.025-0.017-0.038-0.024c-0.03-0.015-0.061-0.021-0.09-0.033
		c-0.052-0.022-0.103-0.043-0.157-0.059c-0.048-0.015-0.096-0.024-0.145-0.034c-0.051-0.01-0.101-0.02-0.151-0.024
		c-0.051-0.005-0.102-0.006-0.153-0.006c-0.051,0-0.1,0.001-0.151,0.006c-0.052,0.004-0.102,0.014-0.152,0.024
		c-0.048,0.01-0.097,0.019-0.145,0.034c-0.054,0.016-0.105,0.037-0.156,0.059c-0.031,0.012-0.061,0.018-0.09,0.033
		c-0.014,0.007-0.025,0.017-0.038,0.024c-0.051,0.027-0.098,0.059-0.146,0.091c-0.039,0.027-0.078,0.052-0.114,0.081
		c-0.04,0.032-0.075,0.07-0.112,0.107c-0.037,0.036-0.075,0.072-0.107,0.112c-0.029,0.036-0.054,0.075-0.081,0.114
		c-0.032,0.048-0.064,0.095-0.091,0.146c-0.006,0.013-0.017,0.024-0.024,0.038l-3.785,7.671l-8.466,1.23
		c-0.015,0.002-0.028,0.008-0.044,0.011c-0.056,0.01-0.11,0.025-0.166,0.041c-0.045,0.014-0.091,0.025-0.134,0.042
		c-0.048,0.018-0.094,0.043-0.139,0.066c-0.046,0.024-0.093,0.046-0.136,0.075c-0.039,0.024-0.076,0.054-0.113,0.084
		c-0.045,0.035-0.09,0.07-0.131,0.109c-0.011,0.011-0.024,0.018-0.034,0.029c-0.024,0.024-0.04,0.051-0.06,0.075
		c-0.037,0.042-0.072,0.084-0.105,0.13c-0.028,0.042-0.052,0.085-0.077,0.128c-0.025,0.045-0.049,0.09-0.069,0.137
		c-0.021,0.047-0.037,0.094-0.053,0.142c-0.015,0.048-0.03,0.097-0.042,0.147c-0.01,0.05-0.017,0.101-0.023,0.151
		c-0.006,0.049-0.011,0.099-0.013,0.149c-0.001,0.056,0.003,0.111,0.008,0.167c0.003,0.032-0.001,0.063,0.004,0.095
		c0.002,0.016,0.009,0.029,0.011,0.044c0.009,0.056,0.025,0.111,0.042,0.165c0.012,0.046,0.024,0.092,0.041,0.135
		c0.019,0.048,0.044,0.094,0.067,0.14c0.023,0.046,0.046,0.093,0.073,0.137c0.026,0.039,0.056,0.074,0.084,0.112
		c0.035,0.045,0.071,0.09,0.111,0.131c0.01,0.011,0.018,0.024,0.029,0.034l6.125,5.972l-1.446,8.43c-0.002,0.016,0,0.03-0.003,0.045
		c-0.008,0.057-0.01,0.114-0.012,0.172c-0.001,0.047-0.005,0.093-0.002,0.14c0.003,0.051,0.013,0.102,0.02,0.153
		c0.008,0.052,0.015,0.103,0.029,0.152c0.011,0.045,0.028,0.088,0.045,0.133c0.019,0.054,0.039,0.108,0.064,0.159
		c0.007,0.014,0.01,0.029,0.017,0.042c0.014,0.029,0.036,0.052,0.052,0.079c0.03,0.048,0.059,0.095,0.092,0.14
		c0.032,0.04,0.065,0.076,0.098,0.113c0.035,0.038,0.07,0.075,0.108,0.109c0.038,0.033,0.078,0.063,0.119,0.094
		c0.041,0.03,0.083,0.058,0.126,0.084c0.045,0.026,0.091,0.048,0.138,0.07c0.045,0.02,0.09,0.041,0.138,0.057
		c0.053,0.019,0.106,0.032,0.16,0.044c0.031,0.008,0.061,0.021,0.093,0.027c0.014,0.002,0.029,0.001,0.045,0.003
		c0.056,0.008,0.113,0.009,0.17,0.011c0.047,0.001,0.094,0.005,0.141,0.002c0.051-0.003,0.102-0.012,0.153-0.02
		c0.051-0.008,0.102-0.015,0.153-0.028c0.044-0.012,0.088-0.029,0.132-0.045c0.054-0.02,0.108-0.039,0.159-0.065
		c0.014-0.007,0.028-0.01,0.042-0.016l7.571-3.981l7.572,3.981c0.014,0.006,0.028,0.009,0.041,0.016
		c0.052,0.026,0.106,0.045,0.161,0.065c0.044,0.016,0.087,0.033,0.131,0.045c0.05,0.013,0.102,0.02,0.153,0.028
		c0.052,0.008,0.102,0.017,0.153,0.02c0.047,0.003,0.094-0.001,0.141-0.002c0.057-0.002,0.114-0.003,0.171-0.011
		c0.014-0.002,0.029-0.001,0.045-0.003c0.032-0.006,0.06-0.019,0.091-0.027c0.055-0.012,0.109-0.025,0.162-0.044
		c0.047-0.016,0.092-0.037,0.137-0.057c0.047-0.022,0.093-0.044,0.137-0.07s0.085-0.054,0.126-0.084s0.082-0.061,0.12-0.095
		c0.038-0.033,0.073-0.07,0.107-0.108c0.035-0.037,0.068-0.073,0.099-0.113c0.033-0.045,0.063-0.092,0.092-0.14
		c0.016-0.027,0.037-0.05,0.053-0.079c0.006-0.013,0.009-0.028,0.016-0.042c0.026-0.051,0.045-0.105,0.065-0.159
		c0.015-0.045,0.033-0.088,0.045-0.133c0.012-0.049,0.019-0.101,0.028-0.152c0.008-0.052,0.016-0.102,0.02-0.153
		c0.002-0.047-0.001-0.094-0.002-0.141c-0.002-0.058-0.003-0.114-0.012-0.171c-0.002-0.014,0-0.029-0.003-0.045l-1.445-8.43
		l6.125-5.972c0.01-0.01,0.018-0.023,0.029-0.034c0.039-0.041,0.074-0.086,0.109-0.131c0.029-0.038,0.06-0.073,0.084-0.112
		C64.996,46.656,65.019,46.61,65.042,46.563 M55.85,51.266c-0.001,0-0.001,0.001-0.002,0.001l-0.01,0.01
		c-0.021,0.021-0.037,0.046-0.057,0.068c-0.047,0.053-0.096,0.105-0.136,0.162c-0.028,0.041-0.05,0.086-0.073,0.129
		c-0.026,0.046-0.054,0.089-0.076,0.138c-0.019,0.046-0.032,0.095-0.047,0.142c-0.017,0.049-0.036,0.097-0.046,0.148
		c-0.011,0.051-0.015,0.101-0.021,0.153c-0.006,0.05-0.014,0.098-0.015,0.149c-0.002,0.07,0.006,0.14,0.014,0.21
		c0.003,0.03,0.001,0.059,0.006,0.089l0.002,0.014c0.001,0.001,0.001,0.002,0.001,0.002l1.045,6.095l-5.473-2.877
		c-0.001-0.001-0.002-0.001-0.003-0.002l-0.011-0.006c-0.027-0.014-0.054-0.021-0.081-0.032c-0.065-0.031-0.13-0.06-0.199-0.08
		c-0.047-0.015-0.096-0.021-0.144-0.031c-0.052-0.01-0.102-0.023-0.153-0.028c-0.052-0.005-0.102-0.003-0.154-0.002
		c-0.051-0.001-0.101-0.003-0.152,0.002c-0.052,0.005-0.102,0.018-0.152,0.028c-0.049,0.01-0.098,0.016-0.147,0.031
		c-0.067,0.02-0.132,0.049-0.196,0.079c-0.028,0.012-0.056,0.019-0.082,0.033l-0.013,0.007c0,0-0.001,0-0.002,0.001L44,58.776
		l1.045-6.095v-0.002l0.003-0.014c0.005-0.03,0.003-0.059,0.006-0.089c0.008-0.07,0.017-0.14,0.015-0.21
		c-0.001-0.051-0.011-0.1-0.017-0.149c-0.006-0.052-0.009-0.103-0.019-0.153c-0.012-0.051-0.03-0.098-0.046-0.147
		c-0.016-0.047-0.029-0.097-0.049-0.144c-0.021-0.048-0.049-0.092-0.074-0.137c-0.025-0.043-0.045-0.088-0.074-0.129
		c-0.041-0.058-0.088-0.11-0.136-0.163c-0.021-0.021-0.035-0.047-0.057-0.067l-0.01-0.01c-0.001,0-0.002-0.001-0.002-0.001
		l-4.427-4.316l6.119-0.89h0.001l0.014-0.002c0.032-0.005,0.06-0.017,0.09-0.022c0.069-0.014,0.137-0.028,0.202-0.051
		c0.048-0.017,0.091-0.04,0.137-0.062c0.047-0.021,0.095-0.04,0.14-0.066c0.044-0.026,0.083-0.058,0.124-0.088
		c0.042-0.03,0.084-0.058,0.122-0.091c0.039-0.035,0.072-0.075,0.107-0.113c0.034-0.037,0.07-0.07,0.1-0.111
		c0.043-0.055,0.078-0.118,0.113-0.179c0.015-0.027,0.033-0.048,0.047-0.075l0.006-0.013c0,0,0.001-0.001,0.001-0.002l2.736-5.545
		l2.737,5.546v0.001l0.007,0.013c0.014,0.028,0.034,0.051,0.049,0.079c0.034,0.059,0.069,0.12,0.111,0.175
		c0.031,0.041,0.067,0.075,0.101,0.112c0.034,0.038,0.067,0.077,0.106,0.111c0.039,0.034,0.082,0.063,0.123,0.092
		c0.041,0.03,0.08,0.062,0.124,0.088c0.045,0.026,0.092,0.045,0.139,0.066c0.045,0.022,0.089,0.045,0.137,0.062
		c0.065,0.023,0.134,0.037,0.202,0.051c0.03,0.005,0.059,0.017,0.09,0.022l0.014,0.002h0.001l6.12,0.89L55.85,51.266z"/>
	<path clip-path="url(#SVGID_2_)" d="M39.369,53.357H4.708c-0.857,0-1.57-0.704-1.57-1.547v-5.514c0-7.75,9.928-14.91,25.11-14.91
		c7.47,0,13.642,1.65,18.097,4.49l0.672-1.362l0.077-0.15l0.042-0.062c0.043-0.071,0.09-0.143,0.143-0.221
		c0.057-0.084,0.115-0.166,0.179-0.245c0.071-0.087,0.148-0.169,0.253-0.273c0.08-0.08,0.161-0.157,0.248-0.227
		c0.035-0.03,0.078-0.058,0.116-0.085c-3.156-2.017-7.027-3.481-11.48-4.286c4.409-2.778,7.345-7.676,7.345-13.271
		c0-8.668-7.025-15.693-15.692-15.693S12.554,7.026,12.554,15.694c0,5.609,2.953,10.519,7.381,13.293
		C7.821,31.219,0,38.265,0,46.296v5.514c0,2.585,2.126,4.686,4.708,4.686h34.469l0.49-2.849L39.369,53.357z M15.693,15.694
		c0-6.935,5.621-12.555,12.555-12.555c6.933,0,12.554,5.62,12.554,12.555c0,6.934-5.621,12.554-12.554,12.554
		C21.314,28.248,15.693,22.628,15.693,15.694"/>
</g>
</svg>
