<?xml version="1.0" encoding="utf-8"?>
<!-- Generator: Adobe Illustrator 17.0.0, SVG Export Plug-In . SVG Version: 6.00 Build 0)  -->
<!DOCTYPE svg PUBLIC "-//W3C//DTD SVG 1.1//EN" "http://www.w3.org/Graphics/SVG/1.1/DTD/svg11.dtd">
<svg version="1.1" id="Layer_1" xmlns="http://www.w3.org/2000/svg" xmlns:xlink="http://www.w3.org/1999/xlink" x="0px" y="0px"
	 width="50px" height="48px" viewBox="0 0 50 48" enable-background="new 0 0 50 48" xml:space="preserve">
<path d="M38.562,32.408c-2.369,0-4.487,1.067-5.908,2.743l0.091-0.151l-13.837-8.306c0.331-0.862,0.52-1.795,0.52-2.773
	c0-0.985-0.191-1.923-0.526-2.79l13.826-8.299c1.42,1.627,3.504,2.66,5.833,2.66c4.278,0,7.746-3.468,7.746-7.746S42.84,0,38.562,0
	s-7.746,3.468-7.746,7.746c0,0.981,0.19,1.916,0.523,2.78L17.51,18.828c-1.42-1.623-3.501-2.653-5.827-2.653
	c-4.278,0-7.746,3.468-7.746,7.746s3.468,7.746,7.746,7.746c2.332,0,4.418-1.036,5.839-2.666l13.832,8.303l0.029-0.047
	c-0.362,0.896-0.566,1.872-0.566,2.898c0,4.278,3.468,7.746,7.746,7.746s7.746-3.468,7.746-7.746S42.84,32.408,38.562,32.408z
	 M38.562,2.848c2.7,0,4.897,2.197,4.897,4.897s-2.197,4.897-4.897,4.897s-4.897-2.197-4.897-4.897S35.862,2.848,38.562,2.848z
	 M11.683,28.818c-2.7,0-4.897-2.197-4.897-4.897s2.197-4.897,4.897-4.897s4.897,2.197,4.897,4.897S14.384,28.818,11.683,28.818z
	 M38.562,45.051c-2.7,0-4.897-2.197-4.897-4.897c0-2.7,2.197-4.897,4.897-4.897s4.897,2.197,4.897,4.897
	C43.46,42.854,41.263,45.051,38.562,45.051z"/>
</svg>
