<?xml version="1.0" encoding="utf-8"?>
<!-- Generator: Adobe Illustrator 17.0.0, SVG Export Plug-In . SVG Version: 6.00 Build 0)  -->
<!DOCTYPE svg PUBLIC "-//W3C//DTD SVG 1.1//EN" "http://www.w3.org/Graphics/SVG/1.1/DTD/svg11.dtd">
<svg version="1.1" id="Layer_1" xmlns="http://www.w3.org/2000/svg" xmlns:xlink="http://www.w3.org/1999/xlink" x="0px" y="0px"
	 width="19.083px" height="19.083px" viewBox="0 0 19.083 19.083" enable-background="new 0 0 19.083 19.083" xml:space="preserve">
<g>
	<defs>
		<rect id="SVGID_1_" y="0" width="19.083" height="19.083"/>
	</defs>
	<clipPath id="SVGID_2_">
		<use xlink:href="#SVGID_1_"  overflow="visible"/>
	</clipPath>
	<path clip-path="url(#SVGID_2_)" d="M9.541,1.719c2.548,0,2.85,0.01,3.856,0.055c0.93,0.043,1.435,0.199,1.772,0.33
		c0.445,0.172,0.763,0.379,1.097,0.713c0.334,0.334,0.541,0.652,0.713,1.097c0.131,0.336,0.287,0.842,0.33,1.772
		c0.045,1.006,0.055,1.308,0.055,3.856s-0.01,2.85-0.055,3.855c-0.043,0.93-0.199,1.436-0.33,1.772
		c-0.172,0.445-0.379,0.764-0.713,1.098c-0.334,0.333-0.652,0.54-1.097,0.712c-0.337,0.131-0.842,0.287-1.772,0.33
		c-1.006,0.045-1.308,0.055-3.856,0.055s-2.85-0.01-3.855-0.055c-0.93-0.043-1.436-0.199-1.772-0.33
		C3.469,16.807,3.15,16.6,2.816,16.267c-0.333-0.334-0.54-0.653-0.712-1.098c-0.131-0.336-0.287-0.842-0.33-1.772
		c-0.045-1.005-0.055-1.307-0.055-3.855s0.01-2.85,0.055-3.856c0.043-0.93,0.199-1.436,0.33-1.772
		c0.172-0.445,0.379-0.763,0.712-1.097C3.15,2.483,3.469,2.276,3.914,2.104c0.336-0.131,0.842-0.287,1.772-0.33
		C6.691,1.729,6.993,1.719,9.541,1.719 M9.541,0C6.95,0,6.625,0.011,5.607,0.058C4.592,0.104,3.898,0.265,3.291,0.501
		c-0.627,0.244-1.159,0.57-1.689,1.101C1.07,2.132,0.744,2.664,0.501,3.291C0.265,3.898,0.103,4.592,0.057,5.607
		C0.011,6.625,0,6.95,0,9.542c0,2.591,0.011,2.916,0.057,3.934c0.046,1.015,0.208,1.709,0.444,2.316
		c0.243,0.627,0.569,1.159,1.101,1.689c0.53,0.532,1.062,0.858,1.689,1.101c0.607,0.236,1.301,0.397,2.316,0.444
		c1.018,0.046,1.343,0.057,3.934,0.057c2.592,0,2.917-0.011,3.935-0.057c1.015-0.047,1.709-0.208,2.316-0.444
		c0.627-0.243,1.159-0.569,1.689-1.101c0.531-0.53,0.857-1.062,1.101-1.689c0.236-0.607,0.397-1.301,0.443-2.316
		c0.047-1.018,0.058-1.343,0.058-3.934c0-2.592-0.011-2.917-0.058-3.935c-0.046-1.015-0.207-1.709-0.443-2.316
		c-0.244-0.627-0.57-1.159-1.101-1.689c-0.53-0.531-1.062-0.857-1.689-1.101c-0.607-0.236-1.301-0.397-2.316-0.443
		C12.458,0.011,12.133,0,9.541,0"/>
	<path clip-path="url(#SVGID_2_)" d="M9.541,4.642c-2.706,0-4.899,2.194-4.899,4.9s2.193,4.9,4.899,4.9s4.9-2.194,4.9-4.9
		S12.247,4.642,9.541,4.642 M9.541,12.723c-1.756,0-3.181-1.425-3.181-3.181s1.425-3.18,3.181-3.18c1.757,0,3.181,1.424,3.181,3.18
		S11.298,12.723,9.541,12.723"/>
	<path clip-path="url(#SVGID_2_)" d="M15.78,4.448c0,0.633-0.513,1.146-1.145,1.146S13.49,5.081,13.49,4.448
		c0-0.632,0.513-1.145,1.145-1.145S15.78,3.816,15.78,4.448"/>
</g>
</svg>
