<?xml version="1.0" encoding="utf-8"?>
<!-- Generator: Adobe Illustrator 17.0.0, SVG Export Plug-In . SVG Version: 6.00 Build 0)  -->
<!DOCTYPE svg PUBLIC "-//W3C//DTD SVG 1.1//EN" "http://www.w3.org/Graphics/SVG/1.1/DTD/svg11.dtd">
<svg version="1.1" id="Layer_1" xmlns="http://www.w3.org/2000/svg" xmlns:xlink="http://www.w3.org/1999/xlink" x="0px" y="0px"
	 width="21.365px" height="60.856px" viewBox="0 0 21.365 60.856" enable-background="new 0 0 21.365 60.856" xml:space="preserve">
<g>
	<defs>
		<rect id="SVGID_1_" y="0" width="21.365" height="60.856"/>
	</defs>
	<clipPath id="SVGID_2_">
		<use xlink:href="#SVGID_1_"  overflow="visible"/>
	</clipPath>
	<path clip-path="url(#SVGID_2_)" d="M0.115,50.451L10.41,60.746c0.149,0.146,0.397,0.146,0.545,0l10.296-10.295
		c0.073-0.074,0.114-0.171,0.114-0.273c0-0.101-0.041-0.198-0.114-0.272l-1.245-1.243c-0.149-0.151-0.398-0.15-0.544-0.001
		l-7.515,7.513V43.848l0.496-0.069c4.948-0.689,8.144-4.431,8.144-9.53c0-3.312-1.34-5.717-4.216-7.57l-4.424-2.913V7.802
		l0.722,0.191c2.981,0.786,4.908,3.41,4.908,6.684v1.867c0,0.216,0.169,0.384,0.386,0.384h2.399c0.216,0,0.385-0.168,0.385-0.384
		v-2.452c0-4.46-3.498-8.265-8.316-9.047l-0.484-0.078V0.385C11.947,0.169,11.778,0,11.563,0h-1.76C9.587,0,9.418,0.169,9.418,0.385
		V5.01L8.939,5.091c-4.774,0.802-8.107,4.833-8.107,9.8c0,3.951,1.221,6.344,4.215,8.262l4.371,2.732V41.02l-0.712-0.174
		c-2.934-0.716-4.758-3.101-4.758-6.222v-0.8c0-0.217-0.169-0.386-0.384-0.386H1.163c-0.215,0-0.384,0.169-0.384,0.386v0.425
		c0,5.12,3.196,8.864,8.141,9.538l0.498,0.067v12.321l-7.513-7.513c-0.074-0.074-0.171-0.114-0.272-0.114H1.632
		c-0.101,0-0.197,0.04-0.271,0.113l-1.246,1.246C0.041,49.98,0.001,50.076,0,50.177C0,50.28,0.041,50.377,0.115,50.451
		 M11.947,41.057V27.5l0.883,0.557c2.694,1.705,4.642,2.937,4.642,5.606v0.961c0,3.214-1.801,5.556-4.818,6.266L11.947,41.057z
		 M9.418,22.114l-1.41-0.868C4.9,19.25,4,18.259,4,15.53v-1.173c0-2.997,1.884-5.536,4.688-6.318l0.729-0.204L9.418,22.114z"/>
</g>
</svg>
