<?xml version="1.0" encoding="utf-8"?>
<!-- Generator: Adobe Illustrator 17.0.0, SVG Export Plug-In . SVG Version: 6.00 Build 0)  -->
<!DOCTYPE svg PUBLIC "-//W3C//DTD SVG 1.1//EN" "http://www.w3.org/Graphics/SVG/1.1/DTD/svg11.dtd">
<svg version="1.1" id="Layer_1" xmlns="http://www.w3.org/2000/svg" xmlns:xlink="http://www.w3.org/1999/xlink" x="0px" y="0px"
	 width="55.803px" height="50.498px" viewBox="0 0 55.803 50.498" enable-background="new 0 0 55.803 50.498" xml:space="preserve">
<g>
	<defs>
		<rect id="SVGID_1_" y="0" width="55.803" height="50.498"/>
	</defs>
	<clipPath id="SVGID_2_">
		<use xlink:href="#SVGID_1_"  overflow="visible"/>
	</clipPath>
	<path clip-path="url(#SVGID_2_)" d="M51.771,35.6c-3.175-1.851-7.067-1.332-9.7,1.3l-3.8-2.2c0.4-1.1,0.6-2.4,0.6-3.701
		c0-5.399-3.9-9.899-9-10.8v-4.5c3.4-0.899,6-4,6-7.7c0-4.399-3.6-8-8-8s-8,3.601-8,8c0,3.7,2.6,6.801,6,7.7v4.5
		c-5.1,0.901-9,5.4-9,10.8c0,1.301,0.2,2.5,0.6,3.7l-3.8,2.2c-2.525-2.524-6.419-3.212-9.7-1.3c-3.8,2.2-5.1,7.1-2.9,10.899
		c2.034,3.636,6.882,5.241,10.9,2.901c3.2-1.901,4.6-5.601,3.7-9l3.9-2.201c2,2.4,5,3.9,8.4,3.9s6.4-1.5,8.4-3.9l3.9,2.201
		c-0.9,3.399,0.5,7.199,3.699,9c3.838,2.236,8.739,0.958,10.9-2.901C56.871,42.699,55.571,37.8,51.771,35.6 M7.974,47.295
		c-2.636,0-4.794-2.158-4.794-4.796c0-2.638,2.158-4.796,4.794-4.796c2.639,0,4.797,2.158,4.797,4.796
		C12.771,45.137,10.613,47.295,7.974,47.295 M23.075,7.999c0-2.638,2.158-4.796,4.796-4.796s4.796,2.158,4.796,4.796
		c0,2.638-2.158,4.796-4.796,4.796S23.075,10.637,23.075,7.999 M27.871,38.75c-4.318,0-7.751-3.433-7.751-7.751
		c0-4.317,3.433-7.75,7.751-7.75s7.75,3.433,7.75,7.75C35.621,35.317,32.189,38.75,27.871,38.75 M47.787,47.295
		c-2.637,0-4.795-2.158-4.795-4.796c0-2.638,2.158-4.796,4.795-4.796c2.639,0,4.797,2.158,4.797,4.796
		C52.584,45.137,50.426,47.295,47.787,47.295"/>
</g>
</svg>
