<?xml version="1.0" encoding="utf-8"?>
<!-- Generator: Adobe Illustrator 17.0.0, SVG Export Plug-In . SVG Version: 6.00 Build 0)  -->
<!DOCTYPE svg PUBLIC "-//W3C//DTD SVG 1.1//EN" "http://www.w3.org/Graphics/SVG/1.1/DTD/svg11.dtd">
<svg version="1.1" id="Layer_1" xmlns="http://www.w3.org/2000/svg" xmlns:xlink="http://www.w3.org/1999/xlink" x="0px" y="0px"
	 width="50px" height="48px" viewBox="0 0 50 48" enable-background="new 0 0 50 48" xml:space="preserve">
<path d="M36.237,21.005l10.705,7.258v16.642H3.058V34.489l9.816-6.447l8.084,4.863L36.237,21.005z M3.058,3.058h43.884v20.747
	l-10.779-7.331L20.737,28.521l-7.863-4.679l-9.816,6.447V3.058z M0,48h50V0H0V48z"/>
<g>
	<defs>
		<rect id="SVGID_1_" width="50" height="48"/>
	</defs>
	<clipPath id="SVGID_2_">
		<use xlink:href="#SVGID_1_"  overflow="visible"/>
	</clipPath>
	<path clip-path="url(#SVGID_2_)" d="M13.916,11.932c1.709,0,3.095,1.386,3.095,3.095s-1.386,3.094-3.095,3.094
		c-1.71,0-3.095-1.385-3.095-3.094S12.206,11.932,13.916,11.932"/>
</g>
</svg>
