<?xml version="1.0" encoding="utf-8"?>
<!-- Generator: Adobe Illustrator 17.0.0, SVG Export Plug-In . SVG Version: 6.00 Build 0)  -->
<!DOCTYPE svg PUBLIC "-//W3C//DTD SVG 1.1//EN" "http://www.w3.org/Graphics/SVG/1.1/DTD/svg11.dtd">
<svg version="1.1" id="Layer_1" xmlns="http://www.w3.org/2000/svg" xmlns:xlink="http://www.w3.org/1999/xlink" x="0px" y="0px"
	 width="50px" height="48px" viewBox="0 0 50 48" enable-background="new 0 0 50 48" xml:space="preserve">
<path d="M36.237,21.005l10.705,7.258v16.642H3.058V34.49l9.816-6.448l8.083,4.863L36.237,21.005z M3.058,3.059h43.884v20.746
	l-10.778-7.332L20.737,28.521l-7.863-4.679L3.058,30.29V3.059z M0,48h50V0H0V48z"/>
<g>
	<defs>
		<rect id="SVGID_1_" width="50" height="48"/>
	</defs>
	<clipPath id="SVGID_2_">
		<use xlink:href="#SVGID_1_"  overflow="visible"/>
	</clipPath>
	<path clip-path="url(#SVGID_2_)" d="M13.915,11.931c1.71,0,3.095,1.386,3.095,3.095c0,1.71-1.385,3.094-3.095,3.094
		c-1.709,0-3.095-1.384-3.095-3.094C10.82,13.317,12.206,11.931,13.915,11.931"/>
</g>
</svg>
