<?xml version="1.0" encoding="utf-8"?>
<!-- Generator: Adobe Illustrator 17.0.0, SVG Export Plug-In . SVG Version: 6.00 Build 0)  -->
<!DOCTYPE svg PUBLIC "-//W3C//DTD SVG 1.1//EN" "http://www.w3.org/Graphics/SVG/1.1/DTD/svg11.dtd">
<svg version="1.1" id="Layer_1" xmlns="http://www.w3.org/2000/svg" xmlns:xlink="http://www.w3.org/1999/xlink" x="0px" y="0px"
	 width="223.076px" height="94.466px" viewBox="0 0 223.076 94.466" enable-background="new 0 0 223.076 94.466"
	 xml:space="preserve">
<g>
	<defs>
		<rect id="SVGID_1_" y="0" width="223.076" height="94.466"/>
	</defs>
	<clipPath id="SVGID_2_">
		<use xlink:href="#SVGID_1_"  overflow="visible"/>
	</clipPath>
	<path clip-path="url(#SVGID_2_)" d="M88.096,54.534c-0.271,0.644-0.626,1.205-1.102,1.695c-1.395,1.434-3.433,1.834-6.057,1.993
		c-0.151,0.01-0.303,0.015-0.452,0.015c-2.23,0-3.807-1.124-4.298-2.952c-1.315,1.018-2.92,1.778-4.359,2.239
		c-4.958,8.383-14.085,14.008-24.53,14.008c-15.732,0-28.485-12.753-28.485-28.484c0-15.732,12.753-28.485,28.485-28.485
		c11.877,0,22.051,7.27,26.327,17.601c0.311-0.05,0.631-0.086,0.969-0.086c1.155,0,2.067,0.349,2.712,1.035
		c0.457,0.488,0.732,1.097,0.827,1.811c1.935-1.225,5.631-2.557,7.864-2.557c1.349,0,2.442,0.645,3.081,1.815
		c0.156,0.285,0.271,0.576,0.361,0.864c1.292-0.979,3.004-2.147,4.96-2.559V14.698c0-4.491-4.043-8.13-9.033-8.13H64.957
		l-1.319-2.559C62.895,1.795,61.643,0,59.184,0H35.216c-2.459,0-3.712,1.795-4.454,4.009l-1.319,2.559H9.031
		C4.043,6.568,0,10.207,0,14.698v59.193c0,4.492,4.043,8.131,9.031,8.131h53.143l-1.569,12.445l14.683-12.445h10.078
		c4.99,0,9.033-3.639,9.033-8.131V58.048c-0.638,0.117-1.212,0.178-1.66,0.178C90.252,58.226,88.523,56.811,88.096,54.534"/>
	<path clip-path="url(#SVGID_2_)" fill="#FFFFFF" d="M152.393,32.136c0.003,0,0.006,0,0.009,0c0.004-0.001,0.009-0.002,0.012-0.002
		C152.407,32.135,152.399,32.136,152.393,32.136"/>
	<path clip-path="url(#SVGID_2_)" d="M36.602,37.927c-2.548-0.024-4.595-2.107-4.57-4.655c0.022-2.548,2.108-4.595,4.655-4.572
		c2.549,0.023,4.594,2.108,4.571,4.656C41.235,35.905,39.15,37.951,36.602,37.927"/>
	<path clip-path="url(#SVGID_2_)" d="M41.908,27.796c-1.19-0.011-2.146-0.984-2.133-2.173c0.01-1.189,0.983-2.144,2.171-2.133
		c1.19,0.011,2.145,0.984,2.133,2.172C44.07,26.853,43.096,27.807,41.908,27.796"/>
	<path clip-path="url(#SVGID_2_)" d="M55.766,24.113c-3.199-0.164-5.404,1.256-6.275,1.879c-1.241,0.881-4.051,3.714-4.955,7.918
		c-0.638,2.961-1.075,4.704-1.513,7.436c-0.189,0.469-0.281,0.298-1.486,0.243c-0.837-0.041-0.723,0.468-0.837,1.227l-0.115,1.403
		c-0.037,0.505-0.075,1.013-0.075,1.267c0,0.72,0.289,0.808,0.993,0.808c1.14,0,1.09,0.372,0.99,1.311
		c-0.342,3.238-0.312,4.272-0.998,7.535c-0.306,1.483-0.355,1.888-1.307,2.866c-0.419,0.424-0.686,0.847-0.686,1.569
		c0,1.947,2.056,2.54,3.505,2.54c1.485,0,4.754-0.76,6.012-1.736c1.409-1.058,1.18-2.801,1.18-4.495l0.68-7.507
		c0.076-1.386,0-2.039,1.494-2.039c1.066,0,0.99-0.215,1.029-1.402l0.113-1.905c0.115-1.526,0.039-1.442-1.218-1.442
		c-0.472,0-0.672,0.021-0.809-0.087c0.037-0.455,0.043-0.947,0.014-1.487l0.57-6.861c0.038-0.382,0.267-2.163,0.8-2.163
		c0.303,0,0.646,0.764,0.761,1.021c0.648,1.227,1.181,1.821,2.552,1.821c2.591,0,3.733-2.5,3.733-5.085
		C59.918,26.076,58.238,24.244,55.766,24.113"/>
	<path clip-path="url(#SVGID_2_)" d="M76.147,35.7c-0.151,2.529-0.835,6.321-1.137,10.871c-0.037,0.673-0.19,2.019,0.038,2.695
		c0.152,0.506,0.417,0.466,0.833,0.506c0.569,0.087,0.948,0.38,0.948,1.051c0,2.739-5.53,5.184-7.614,5.184
		c-3.37,0-1.742-3.58-2.954-3.58c-0.984,0-2.84,3.789-6.741,3.789c-3.485,0-4.923-3.41-4.773-6.826
		c0.305-7.581,4.545-14.661,10.378-15.247c2.653-0.296,3.711,1.724,4.811,1.724c0.416,0,1.098-0.463,1.438-0.673
		c1.061-0.589,2.046-1.097,3.219-1.097C75.654,34.097,76.222,34.522,76.147,35.7 M68.458,40.165c0-0.544-0.151-1.391-0.756-1.347
		c-2.009,0.167-4.546,6.446-4.508,9.143c0,0.629,0.113,1.724,0.871,1.641C66.071,49.435,68.534,42.271,68.458,40.165"/>
	<path clip-path="url(#SVGID_2_)" d="M91.452,42.557c0-0.757-0.341-1.35-1.061-1.35c-2.764,0-3.257,6.406-3.484,8.973
		c-0.379,4.637-1.213,5.731-6.099,6.028c-1.362,0.087-2.763-0.338-2.763-2.193c0-2.107,1.74-8.425,1.629-12.089
		c0-0.844-0.264-1.353-1.061-1.353h-0.379c-0.759,0-1.062-0.499-1.062-1.344c0-1.178,1.1-2.023,1.933-2.531
		c1.591-1.05,5.076-2.311,6.892-2.311c2.311,0,1.289,3.704,2.463,3.704c0.947,0,4.052-3.75,7.347-3.75
		c2.197,0,4.319,1.43,4.319,4.086c0,2.991-1.326,8.048-1.326,10.617c0,1.684,1.818,0.636,1.818,2.277
		c0,3.076-5.718,4.887-7.879,4.887c-1.666,0-2.727-0.928-2.727-2.824c0-2.147,0.682-4.885,0.985-7.077L91.452,42.557z"/>
	<path clip-path="url(#SVGID_2_)" d="M101.482,47.877c0-8.046,5.681-13.99,12.874-13.99c4.735,0,8.636,2.825,8.636,8.346
		c0,8.043-5.682,13.983-12.879,13.983C105.383,56.216,101.482,53.398,101.482,47.877 M110.872,42.358
		c-0.415,2.274-0.759,5.138-0.759,7.457c0,0.969,0.229,1.937,1.214,1.937c1.59,0,1.894-2.525,2.122-3.79
		c0.379-2.153,0.907-5.394,0.907-7.546c0-0.966-0.187-2.06-1.248-2.06C111.516,38.356,111.138,41.051,110.872,42.358"/>
	<path clip-path="url(#SVGID_2_)" d="M134.648,50.265c0.227,4.086-1.365,5.689-6.555,5.942c-1.399,0.087-2.916-0.338-2.916-2.231
		c0-2.529,1.517-7.798,1.593-11.713c0.036-1.141-0.076-1.477-1.1-1.477c-1.172,0-1.779-0.337-1.779-1.851
		c0-2.279,3.068-2.952,4.508-3.752c1.021-0.592,2.272-1.097,3.483-1.097c2.311,0,1.288,4.005,2.5,4.005
		c1.097,0,0.985-4.046,4.507-4.046c2.461,0,4.127,2.358,4.127,5.014c0,2.571-1.136,5.054-3.712,5.054
		c-1.361,0-1.892-0.588-2.535-1.809c-0.116-0.254-0.456-1.012-0.761-1.012c-0.529,0-0.756,1.768-0.793,2.149L134.648,50.265z"/>
	<path clip-path="url(#SVGID_2_)" d="M163.639,35.7c-0.151,2.529-0.834,6.321-1.138,10.871c-0.035,0.673-0.189,2.019,0.04,2.695
		c0.151,0.506,0.416,0.466,0.832,0.506c0.567,0.087,0.948,0.38,0.948,1.051c0,2.739-5.53,5.184-7.613,5.184
		c-3.37,0-1.742-3.58-2.955-3.58c-0.982,0-2.839,3.789-6.74,3.789c-3.485,0-4.923-3.41-4.772-6.826
		c0.304-7.581,4.545-14.661,10.376-15.247c2.652-0.296,3.712,1.724,4.811,1.724c0.417,0,1.097-0.463,1.439-0.673
		c1.06-0.589,2.044-1.097,3.22-1.097C163.147,34.097,163.715,34.522,163.639,35.7 M155.951,40.165c0-0.544-0.151-1.391-0.759-1.347
		c-2.007,0.167-4.543,6.446-4.506,9.143c0,0.629,0.113,1.724,0.872,1.641C153.564,49.435,156.026,42.271,155.951,40.165"/>
	<path clip-path="url(#SVGID_2_)" d="M187.631,37.28c0.076,0.296,0.076,0.804,0.417,0.804c0.605,0,3.258-3.796,7.31-3.796
		c2.31,0,3.786,1.69,3.786,4.216c0,2.4-1.249,8.381-1.249,10.282c0,2.148,2.007,0.378,2.007,2.232c0,3.116-5.681,5.015-7.726,5.136
		c-1.741,0.088-2.612-1.176-2.803-2.99c0-3.663,1.25-7.244,1.25-10.614c0-0.763-0.188-1.352-0.947-1.352
		c-2.916,0-2.954,5.983-3.144,7.966c-0.226,2.276-0.493,4.383-1.096,5.138c-1.176,1.477-3.979,1.852-5.645,1.852
		c-1.591,0-2.271-0.545-2.271-2.402c0-3.326,1.437-7.369,1.437-10.992c0-0.886-0.075-1.562-1.021-1.562
		c-2.651,0-2.993,7.164-3.107,9.061c-0.34,4.127-0.076,5.437-6.438,5.943c-1.478,0.125-2.499-0.423-2.499-2.276
		c0-1.56,1.514-8.341,1.514-11.883c0-0.802-0.114-1.388-0.909-1.388c-0.832,0-1.817,0-1.817-1.309c0-1.558,1.893-2.483,2.953-3.075
		c1.782-0.97,3.826-1.983,5.871-1.983c1.364,0,1.931,1.013,2.045,2.402c0,0.382,0.075,1.394,0.568,1.394
		c0.91,0,3.977-3.796,7.537-3.796C185.436,34.288,187.1,35.301,187.631,37.28"/>
	<path clip-path="url(#SVGID_2_)" d="M222.393,35.7c-0.15,2.529-0.832,6.321-1.135,10.871c-0.037,0.673-0.191,2.019,0.039,2.695
		c0.15,0.506,0.414,0.466,0.832,0.506c0.567,0.087,0.946,0.38,0.946,1.051c0,2.739-5.529,5.184-7.613,5.184
		c-3.37,0-1.742-3.58-2.952-3.58c-0.986,0-2.841,3.789-6.743,3.789c-3.485,0-4.923-3.41-4.771-6.826
		c0.303-7.581,4.545-14.661,10.375-15.247c2.651-0.296,3.712,1.724,4.812,1.724c0.417,0,1.098-0.463,1.44-0.673
		c1.06-0.589,2.044-1.097,3.219-1.097C221.901,34.097,222.469,34.522,222.393,35.7 M214.706,40.165c0-0.544-0.152-1.391-0.758-1.347
		c-2.007,0.167-4.544,6.446-4.508,9.143c0,0.629,0.115,1.724,0.872,1.641C212.318,49.435,214.78,42.271,214.706,40.165"/>
</g>
</svg>
