<?xml version="1.0" encoding="utf-8"?>
<!-- Generator: Adobe Illustrator 17.0.0, SVG Export Plug-In . SVG Version: 6.00 Build 0)  -->
<!DOCTYPE svg PUBLIC "-//W3C//DTD SVG 1.1//EN" "http://www.w3.org/Graphics/SVG/1.1/DTD/svg11.dtd">
<svg version="1.1" id="Layer_1" xmlns="http://www.w3.org/2000/svg" xmlns:xlink="http://www.w3.org/1999/xlink" x="0px" y="0px"
	 width="227.113px" height="101.379px" viewBox="0 0 227.113 101.379" enable-background="new 0 0 227.113 101.379"
	 xml:space="preserve">
<g>
	<defs>
		<rect id="SVGID_1_" width="227.113" height="101.379"/>
	</defs>
	<clipPath id="SVGID_2_">
		<use xlink:href="#SVGID_1_"  overflow="visible"/>
	</clipPath>
	<path clip-path="url(#SVGID_2_)" fill="#FFFFFF" d="M77.802,45.067c0,15.731-12.753,28.484-28.485,28.484
		S20.832,60.798,20.832,45.067c0-15.732,12.753-28.485,28.485-28.485S77.802,29.335,77.802,45.067"/>
	<path clip-path="url(#SVGID_2_)" fill="#BF311A" d="M63.048,85.051H11.05c-5.537,0-10.04-4.101-10.04-9.141V16.717
		c0-5.04,4.503-9.139,10.04-9.139h19.797l1.002-1.946c1.048-3.067,2.86-4.622,5.386-4.622h23.968c2.525,0,4.336,1.555,5.386,4.622
		l1.002,1.946h19.794c5.537,0,10.042,4.099,10.042,9.139V75.91c0,5.04-4.505,9.141-10.042,9.141h-9.708L61.298,98.933L63.048,85.051
		z M49.219,17.671c-15.215,0-27.594,12.377-27.594,27.591s12.379,27.592,27.594,27.593c15.215,0,27.593-12.377,27.593-27.592
		C76.812,30.049,64.434,17.671,49.219,17.671"/>
	<path clip-path="url(#SVGID_2_)" fill="#FFFFFF" d="M61.203,2.018c2.459,0,3.711,1.795,4.454,4.009l1.319,2.559h20.409
		c4.99,0,9.033,3.639,9.033,8.13V75.91c0,4.492-4.043,8.131-9.033,8.131H77.307L62.624,96.485l1.569-12.445H11.05
		c-4.988,0-9.031-3.639-9.031-8.131V16.716c0-4.491,4.043-8.13,9.031-8.13h20.412l1.319-2.559c0.742-2.214,1.995-4.009,4.454-4.009
		H61.203 M49.219,73.865c15.795,0,28.602-12.806,28.602-28.602c0-15.795-12.807-28.601-28.602-28.601
		c-15.797,0-28.603,12.805-28.603,28.601S33.422,73.863,49.219,73.865 M61.203-0.001H37.235c-2.058,0-4.813,0.914-6.316,5.235
		l-0.688,1.333H11.05C4.957,6.567,0,11.12,0,16.716V75.91c0,5.597,4.957,10.15,11.05,10.15h50.853l-1.282,10.173l-0.649,5.146
		l3.957-3.353l14.119-11.966h9.337c6.094,0,11.052-4.553,11.052-10.15V16.716c0-5.596-4.958-10.149-11.052-10.149H68.207
		l-0.688-1.334C66.014,0.912,63.26-0.001,61.203-0.001 M49.219,71.845C34.56,71.844,22.635,59.918,22.635,45.262
		c0-14.658,11.925-26.582,26.584-26.582c14.658,0,26.583,11.925,26.583,26.582C75.802,59.92,63.877,71.845,49.219,71.845"/>
	<path clip-path="url(#SVGID_2_)" fill="#FFFFFF" d="M43.277,35.375c0.023-2.548-2.022-4.633-4.571-4.656
		c-2.547-0.023-4.633,2.024-4.655,4.572c-0.025,2.548,2.022,4.631,4.57,4.655C41.169,39.97,43.254,37.924,43.277,35.375
		 M43.927,29.815c1.188,0.011,2.161-0.943,2.171-2.134c0.012-1.188-0.944-2.161-2.134-2.172c-1.187-0.011-2.16,0.944-2.171,2.133
		C41.781,28.831,42.736,29.804,43.927,29.815 M225.215,49.997c0.01-0.322,0.034-0.667,0.049-0.867
		c0.01-0.154,0.021-0.293,0.027-0.415c0.167-2.478,0.446-4.72,0.693-6.698c0.201-1.608,0.374-2.996,0.444-4.178
		c0.071-1.112-0.217-2.026-0.856-2.707c-0.644-0.687-1.556-1.035-2.711-1.035c-1.765,0-3.172,0.78-4.199,1.35l-0.041,0.023
		l-0.039,0.024l-0.143,0.089c-0.053,0.034-0.135,0.085-0.222,0.138c-0.056-0.039-0.113-0.078-0.164-0.113
		c-0.802-0.559-2.145-1.495-4.142-1.495c-0.237,0-0.482,0.014-0.726,0.041c0-0.001,0.002-0.001,0.004-0.001
		c-0.004,0-0.007,0.001-0.01,0.001l-0.012,0.001h0.004c-3.363,0.344-6.463,2.438-8.73,5.901c-0.527,0.804-0.997,1.665-1.411,2.571
		c0.092-0.804,0.153-1.53,0.153-2.105c0-3.67-2.387-6.234-5.806-6.234c-2.859,0-5.12,1.452-6.599,2.65
		c-1.096-1.654-2.947-2.65-5.104-2.65c-2.602,0-4.861,1.459-6.432,2.638c-0.695-1.915-2.277-2.638-3.719-2.638
		c-2.528,0-4.854,1.15-6.836,2.229l-0.01,0.005l-0.008,0.005l-0.221,0.122c-0.233,0.128-0.502,0.277-0.786,0.448
		c-0.072-0.781-0.354-1.442-0.845-1.965c-0.644-0.687-1.557-1.035-2.712-1.035c-1.766,0-3.172,0.78-4.2,1.35l-0.04,0.023
		l-0.037,0.023l-0.148,0.093c-0.053,0.033-0.134,0.083-0.219,0.135c-0.057-0.039-0.112-0.078-0.163-0.113
		c-0.803-0.559-2.146-1.495-4.142-1.495c-0.241,0-0.488,0.015-0.735,0.042c-2.892,0.294-5.588,1.886-7.728,4.525
		c-0.842-2.727-3.08-4.635-5.785-4.635c-1.938,0-3.191,0.81-4.028,1.759c-0.524-0.926-1.416-1.718-2.979-1.718
		c-1.755,0-3.4,0.736-4.478,1.359c-0.229,0.125-0.575,0.273-0.943,0.431c-0.994,0.427-2.376,1.025-3.363,2.055
		c-1.845-2.541-4.915-4.044-8.741-4.044c-4.071,0-7.839,1.641-10.612,4.621c-0.594,0.638-1.127,1.328-1.604,2.06
		c0-0.04,0.003-0.083,0.003-0.122c0-3.481-2.724-6.106-6.337-6.106c-2.546,0-4.773,1.516-6.368,2.725
		c-0.09-0.288-0.205-0.58-0.36-0.865c-0.64-1.17-1.733-1.814-3.082-1.814c-2.232,0-5.929,1.331-7.864,2.556
		c-0.094-0.714-0.369-1.323-0.827-1.81c-0.644-0.687-1.557-1.035-2.712-1.035c-1.764,0-3.171,0.78-4.199,1.35l-0.043,0.024
		l-0.041,0.025l-0.136,0.086c-0.054,0.033-0.136,0.086-0.224,0.139c-0.057-0.039-0.113-0.078-0.163-0.113
		c-0.803-0.559-2.146-1.495-4.143-1.495c-0.24,0-0.485,0.014-0.731,0.041c-1.569,0.159-3.079,0.703-4.475,1.584
		c0.945-1.242,1.498-2.958,1.498-4.971c0-3.726-2.493-6.462-6.065-6.651c-0.206-0.011-0.412-0.017-0.615-0.017
		c-1.721,0-4.322,0.395-6.942,2.27c-1.656,1.176-4.741,4.43-5.753,9.135c-0.151,0.702-0.292,1.336-0.422,1.93
		c-0.326,1.473-0.6,2.71-0.862,4.156c-0.919,0.045-2.31,0.483-2.543,2.673c-0.009,0.085-0.018,0.175-0.032,0.27l-0.01,0.069
		l-0.006,0.069l-0.114,1.403l-0.009,0.12c-0.039,0.536-0.074,1-0.074,1.311c0,0.717,0.21,2.24,1.914,2.695
		c-0.047,0.474-0.086,0.9-0.123,1.296c-0.168,1.809-0.269,2.901-0.762,5.248l-0.041,0.196c-0.238,1.164-0.238,1.164-0.736,1.676
		c-0.537,0.543-1.259,1.452-1.259,2.977c0,2.685,2.272,4.56,5.524,4.56c1.815,0,5.527-0.837,7.233-2.148
		c2.049-1.545,2.011-3.836,1.984-5.509c-0.003-0.167-0.006-0.334-0.007-0.502l0.509-5.625c0.091,2.426,0.882,4.569,2.236,5.983
		c1.19,1.244,2.766,1.903,4.558,1.903c2.637,0,4.509-1.255,5.814-2.411c0.074,0.155,0.16,0.309,0.259,0.46
		c0.523,0.794,1.574,1.742,3.623,1.742c1.649,0,4.737-1.013,6.971-2.743c0.491,1.829,2.068,2.953,4.298,2.953
		c0.149,0,0.302-0.005,0.452-0.015c2.624-0.159,4.663-0.56,6.058-1.993c0.475-0.49,0.831-1.052,1.101-1.696
		c0.427,2.278,2.156,3.693,4.643,3.693c2.056,0,6.64-1.209,8.77-3.856c1.857,2.433,4.871,3.866,8.605,3.866
		c4.071,0,7.841-1.641,10.616-4.62c1.409-1.513,2.493-3.31,3.22-5.287c-0.029,0.154-0.056,0.308-0.084,0.459
		c-0.379,2.062-0.707,3.841-0.707,5.188c0,2.588,1.806,4.261,4.602,4.261c0.144,0,0.294-0.005,0.443-0.013
		c3.426-0.168,5.56-0.916,6.918-2.423c1.519-1.686,1.625-3.919,1.549-5.504l0.389-4.685c0.591,0.324,1.319,0.519,2.244,0.519
		c0.45,0,0.879-0.055,1.288-0.154c-0.197,1.093-0.323,2.207-0.37,3.332c-0.125,2.847,0.688,5.411,2.231,7.024
		c1.191,1.244,2.767,1.903,4.559,1.903c2.638,0,4.51-1.255,5.815-2.411c0.074,0.155,0.159,0.309,0.258,0.46
		c0.522,0.794,1.575,1.742,3.622,1.742c1.726,0,5.022-1.109,7.274-2.986c0.389,1.996,1.854,3.196,4.023,3.196
		c0.179,0,0.368-0.008,0.559-0.025c3.048-0.242,5.221-0.67,6.601-2.054c0.215-0.215,0.399-0.441,0.557-0.674
		c0.508,1.766,1.89,2.689,4.07,2.689c1.206,0,5.292-0.188,7.224-2.613c0.223-0.278,0.41-0.607,0.57-0.993
		c0.613,2.257,2.234,3.611,4.427,3.611c0.087,0,0.175-0.002,0.265-0.007h0.022c1.463-0.089,5.482-1.08,7.837-3.325
		c0.305,0.554,0.659,1.056,1.072,1.487c1.19,1.244,2.768,1.903,4.559,1.903c2.638,0,4.51-1.255,5.815-2.412
		c0.074,0.156,0.159,0.31,0.258,0.461c0.524,0.794,1.575,1.742,3.622,1.742c2.779,0,9.632-2.871,9.632-7.204
		C227.113,51.508,226.391,50.455,225.215,49.997 M58.193,40.056c-0.475,0.727-0.905,1.502-1.288,2.313
		c-0.409-0.43-0.889-0.625-1.328-0.711l0.359-4.319c0.596,0.331,1.332,0.532,2.268,0.532c0.77,0,1.483-0.158,2.131-0.441
		C59.563,38.189,58.843,39.065,58.193,40.056 M154.412,34.155c0.003,0,0.006,0,0.009,0c0.004-0.001,0.009-0.002,0.012-0.002
		C154.426,34.154,154.418,34.155,154.412,34.155"/>
	<path clip-path="url(#SVGID_2_)" fill="#A7A9AC" d="M38.621,39.946c-2.548-0.024-4.595-2.107-4.57-4.655
		c0.022-2.548,2.108-4.595,4.655-4.572c2.549,0.023,4.594,2.108,4.571,4.656C43.254,37.924,41.169,39.97,38.621,39.946"/>
	<path clip-path="url(#SVGID_2_)" fill="#A7A9AC" d="M43.926,29.815c-1.19-0.011-2.146-0.984-2.133-2.173
		c0.01-1.189,0.983-2.144,2.171-2.133c1.19,0.011,2.145,0.984,2.133,2.172C46.088,28.872,45.114,29.826,43.926,29.815"/>
	<path clip-path="url(#SVGID_2_)" fill="#6D6E71" d="M57.785,26.132c-3.199-0.164-5.404,1.256-6.275,1.879
		c-1.241,0.881-4.051,3.714-4.955,7.918c-0.638,2.961-1.075,4.704-1.513,7.436c-0.189,0.469-0.281,0.298-1.486,0.243
		c-0.837-0.041-0.723,0.468-0.837,1.227l-0.115,1.403c-0.037,0.505-0.075,1.013-0.075,1.267c0,0.72,0.289,0.808,0.993,0.808
		c1.14,0,1.09,0.372,0.99,1.311c-0.342,3.238-0.312,4.272-0.998,7.535c-0.306,1.483-0.355,1.888-1.307,2.866
		c-0.419,0.424-0.686,0.847-0.686,1.569c0,1.947,2.056,2.54,3.505,2.54c1.485,0,4.754-0.76,6.012-1.736
		c1.409-1.058,1.18-2.801,1.18-4.495l0.68-7.507c0.076-1.386,0-2.039,1.494-2.039c1.066,0,0.99-0.215,1.029-1.402l0.113-1.905
		c0.115-1.526,0.039-1.442-1.218-1.442c-0.472,0-0.672,0.021-0.809-0.087c0.037-0.455,0.043-0.947,0.014-1.487l0.57-6.861
		c0.038-0.382,0.267-2.163,0.8-2.163c0.303,0,0.646,0.764,0.761,1.021c0.648,1.227,1.181,1.821,2.552,1.821
		c2.591,0,3.733-2.5,3.733-5.085C61.936,28.095,60.256,26.263,57.785,26.132"/>
	<path clip-path="url(#SVGID_2_)" fill="#6D6E71" d="M78.166,37.719c-0.151,2.529-0.835,6.321-1.137,10.871
		c-0.037,0.673-0.19,2.019,0.038,2.695c0.152,0.506,0.417,0.466,0.833,0.506c0.569,0.087,0.948,0.38,0.948,1.051
		c0,2.739-5.53,5.184-7.614,5.184c-3.37,0-1.742-3.58-2.954-3.58c-0.984,0-2.84,3.789-6.741,3.789c-3.485,0-4.923-3.41-4.773-6.826
		c0.305-7.581,4.545-14.661,10.378-15.247c2.653-0.296,3.711,1.724,4.811,1.724c0.416,0,1.098-0.463,1.438-0.673
		c1.061-0.589,2.046-1.097,3.219-1.097C77.673,36.116,78.241,36.541,78.166,37.719 M70.477,42.184c0-0.544-0.151-1.391-0.756-1.347
		c-2.009,0.167-4.546,6.446-4.508,9.143c0,0.629,0.113,1.724,0.871,1.641C68.09,51.454,70.553,44.29,70.477,42.184"/>
	<path clip-path="url(#SVGID_2_)" fill="#6D6E71" d="M93.47,44.575c0-0.757-0.341-1.35-1.061-1.35c-2.764,0-3.257,6.406-3.484,8.973
		c-0.379,4.637-1.213,5.731-6.099,6.028c-1.362,0.087-2.763-0.338-2.763-2.193c0-2.107,1.74-8.425,1.629-12.089
		c0-0.844-0.264-1.353-1.061-1.353h-0.379c-0.759,0-1.062-0.499-1.062-1.344c0-1.178,1.1-2.023,1.933-2.531
		c1.591-1.05,5.076-2.311,6.892-2.311c2.311,0,1.289,3.704,2.463,3.704c0.947,0,4.052-3.75,7.347-3.75
		c2.197,0,4.319,1.43,4.319,4.086c0,2.991-1.326,8.048-1.326,10.617c0,1.684,1.818,0.636,1.818,2.277
		c0,3.076-5.718,4.887-7.879,4.887c-1.666,0-2.727-0.928-2.727-2.824c0-2.147,0.682-4.885,0.985-7.077L93.47,44.575z"/>
	<path clip-path="url(#SVGID_2_)" fill="#6D6E71" d="M103.501,49.896c0-8.046,5.681-13.99,12.874-13.99
		c4.735,0,8.636,2.825,8.636,8.346c0,8.043-5.682,13.983-12.879,13.983C107.402,58.235,103.501,55.417,103.501,49.896
		 M112.891,44.377c-0.415,2.274-0.759,5.138-0.759,7.457c0,0.969,0.229,1.937,1.214,1.937c1.59,0,1.894-2.525,2.122-3.79
		c0.379-2.153,0.907-5.394,0.907-7.546c0-0.966-0.187-2.06-1.248-2.06C113.535,40.375,113.157,43.07,112.891,44.377"/>
	<path clip-path="url(#SVGID_2_)" fill="#6D6E71" d="M136.667,52.284c0.227,4.086-1.365,5.689-6.555,5.942
		c-1.399,0.087-2.916-0.338-2.916-2.231c0-2.529,1.517-7.798,1.593-11.713c0.036-1.141-0.076-1.477-1.1-1.477
		c-1.172,0-1.779-0.337-1.779-1.851c0-2.279,3.068-2.952,4.508-3.752c1.021-0.592,2.272-1.097,3.483-1.097
		c2.311,0,1.288,4.005,2.5,4.005c1.097,0,0.985-4.046,4.507-4.046c2.461,0,4.127,2.358,4.127,5.014c0,2.571-1.136,5.054-3.712,5.054
		c-1.361,0-1.892-0.588-2.535-1.809c-0.116-0.254-0.456-1.012-0.761-1.012c-0.529,0-0.756,1.768-0.793,2.149L136.667,52.284z"/>
	<path clip-path="url(#SVGID_2_)" fill="#6D6E71" d="M165.657,37.719c-0.151,2.529-0.834,6.321-1.138,10.871
		c-0.035,0.673-0.189,2.019,0.04,2.695c0.151,0.506,0.416,0.466,0.832,0.506c0.567,0.087,0.948,0.38,0.948,1.051
		c0,2.739-5.53,5.184-7.613,5.184c-3.37,0-1.742-3.58-2.955-3.58c-0.982,0-2.839,3.789-6.74,3.789c-3.485,0-4.923-3.41-4.772-6.826
		c0.304-7.581,4.545-14.661,10.376-15.247c2.652-0.296,3.712,1.724,4.811,1.724c0.417,0,1.097-0.463,1.439-0.673
		c1.06-0.589,2.044-1.097,3.22-1.097C165.165,36.116,165.733,36.541,165.657,37.719 M157.969,42.184
		c0-0.544-0.151-1.391-0.759-1.347c-2.007,0.167-4.543,6.446-4.506,9.143c0,0.629,0.113,1.724,0.872,1.641
		C155.582,51.454,158.044,44.29,157.969,42.184"/>
	<path clip-path="url(#SVGID_2_)" fill="#6D6E71" d="M189.65,39.299c0.076,0.296,0.076,0.804,0.417,0.804
		c0.605,0,3.258-3.796,7.31-3.796c2.31,0,3.786,1.69,3.786,4.216c0,2.4-1.249,8.381-1.249,10.282c0,2.148,2.007,0.378,2.007,2.232
		c0,3.116-5.681,5.015-7.726,5.136c-1.741,0.088-2.612-1.176-2.803-2.99c0-3.663,1.25-7.244,1.25-10.614
		c0-0.763-0.188-1.352-0.947-1.352c-2.916,0-2.954,5.983-3.144,7.966c-0.226,2.276-0.493,4.383-1.096,5.138
		c-1.176,1.477-3.979,1.852-5.645,1.852c-1.591,0-2.271-0.545-2.271-2.402c0-3.326,1.437-7.369,1.437-10.992
		c0-0.886-0.075-1.562-1.021-1.562c-2.651,0-2.993,7.164-3.107,9.061c-0.34,4.127-0.076,5.437-6.438,5.943
		c-1.478,0.125-2.499-0.423-2.499-2.276c0-1.56,1.514-8.341,1.514-11.883c0-0.802-0.114-1.388-0.909-1.388
		c-0.832,0-1.817,0-1.817-1.309c0-1.558,1.893-2.483,2.953-3.075c1.782-0.97,3.826-1.983,5.871-1.983
		c1.364,0,1.931,1.013,2.045,2.402c0,0.382,0.075,1.394,0.568,1.394c0.91,0,3.977-3.796,7.537-3.796
		C187.455,36.307,189.119,37.32,189.65,39.299"/>
	<path clip-path="url(#SVGID_2_)" fill="#6D6E71" d="M224.412,37.719c-0.15,2.529-0.832,6.321-1.135,10.871
		c-0.037,0.673-0.191,2.019,0.039,2.695c0.15,0.506,0.414,0.466,0.832,0.506c0.567,0.087,0.946,0.38,0.946,1.051
		c0,2.739-5.529,5.184-7.613,5.184c-3.37,0-1.742-3.58-2.952-3.58c-0.986,0-2.841,3.789-6.743,3.789
		c-3.485,0-4.923-3.41-4.771-6.826c0.303-7.581,4.545-14.661,10.375-15.247c2.651-0.296,3.712,1.724,4.812,1.724
		c0.417,0,1.098-0.463,1.44-0.673c1.06-0.589,2.044-1.097,3.219-1.097C223.92,36.116,224.488,36.541,224.412,37.719 M216.725,42.184
		c0-0.544-0.152-1.391-0.758-1.347c-2.007,0.167-4.544,6.446-4.508,9.143c0,0.629,0.115,1.724,0.872,1.641
		C214.337,51.454,216.799,44.29,216.725,42.184"/>
</g>
</svg>
