<?xml version="1.0" encoding="utf-8"?>
<!-- Generator: Adobe Illustrator 17.0.0, SVG Export Plug-In . SVG Version: 6.00 Build 0)  -->
<!DOCTYPE svg PUBLIC "-//W3C//DTD SVG 1.1//EN" "http://www.w3.org/Graphics/SVG/1.1/DTD/svg11.dtd">
<svg version="1.1" id="Layer_1" xmlns="http://www.w3.org/2000/svg" xmlns:xlink="http://www.w3.org/1999/xlink" x="0px" y="0px"
	 width="243.891px" height="101.379px" viewBox="0 0 243.891 101.379" enable-background="new 0 0 243.891 101.379"
	 xml:space="preserve">
<g display="none">
	<g display="inline">
		<defs>
			<rect id="SVGID_1_" width="227.113" height="101.379"/>
		</defs>
		<clipPath id="SVGID_2_">
			<use xlink:href="#SVGID_1_"  overflow="visible"/>
		</clipPath>
		<path clip-path="url(#SVGID_2_)" fill="#FFFFFF" d="M77.802,45.067c0,15.731-12.753,28.484-28.485,28.484
			S20.832,60.798,20.832,45.067c0-15.732,12.753-28.485,28.485-28.485S77.802,29.335,77.802,45.067"/>
	</g>
	<g display="inline">
		<defs>
			<rect id="SVGID_3_" width="227.113" height="101.379"/>
		</defs>
		<clipPath id="SVGID_4_">
			<use xlink:href="#SVGID_3_"  overflow="visible"/>
		</clipPath>
		<path clip-path="url(#SVGID_4_)" fill="#BF311A" d="M63.048,85.051H11.05c-5.537,0-10.04-4.101-10.04-9.141V16.717
			c0-5.04,4.503-9.139,10.04-9.139h19.797l1.002-1.946c1.048-3.067,2.86-4.622,5.386-4.622h23.968c2.525,0,4.336,1.555,5.386,4.622
			l1.002,1.946h19.794c5.537,0,10.042,4.099,10.042,9.139V75.91c0,5.04-4.505,9.141-10.042,9.141h-9.708L61.298,98.933
			L63.048,85.051z M49.219,17.671c-15.215,0-27.594,12.377-27.594,27.591s12.379,27.592,27.594,27.593
			c15.215,0,27.593-12.377,27.593-27.592C76.812,30.049,64.434,17.671,49.219,17.671"/>
	</g>
	<g display="inline">
		<defs>
			<rect id="SVGID_5_" width="227.113" height="101.379"/>
		</defs>
		<clipPath id="SVGID_6_">
			<use xlink:href="#SVGID_5_"  overflow="visible"/>
		</clipPath>
		<path clip-path="url(#SVGID_6_)" fill="#FFFFFF" d="M61.203,2.018c2.459,0,3.711,1.795,4.454,4.009l1.319,2.559h20.409
			c4.99,0,9.033,3.639,9.033,8.13V75.91c0,4.492-4.043,8.131-9.033,8.131H77.307L62.624,96.485l1.569-12.445H11.05
			c-4.988,0-9.031-3.639-9.031-8.131V16.716c0-4.491,4.043-8.13,9.031-8.13h20.412l1.319-2.559c0.742-2.214,1.995-4.009,4.454-4.009
			L61.203,2.018 M49.219,73.865c15.795,0,28.602-12.806,28.602-28.602c0-15.795-12.807-28.601-28.602-28.601
			c-15.797,0-28.603,12.805-28.603,28.601S33.422,73.863,49.219,73.865 M61.203-0.001H37.235c-2.058,0-4.813,0.914-6.316,5.235
			l-0.688,1.333H11.05C4.957,6.567,0,11.12,0,16.716V75.91c0,5.597,4.957,10.15,11.05,10.15h50.853l-1.282,10.173l-0.649,5.146
			l3.957-3.353L78.048,86.06h9.337c6.094,0,11.052-4.553,11.052-10.15V16.716c0-5.596-4.958-10.149-11.052-10.149H68.207
			l-0.688-1.334C66.014,0.912,63.26-0.001,61.203-0.001 M49.219,71.845C34.56,71.844,22.635,59.918,22.635,45.262
			c0-14.658,11.925-26.582,26.584-26.582c14.658,0,26.583,11.925,26.583,26.582C75.802,59.92,63.877,71.845,49.219,71.845"/>
	</g>
	<g display="inline">
		<defs>
			<rect id="SVGID_7_" width="227.113" height="101.379"/>
		</defs>
		<clipPath id="SVGID_8_">
			<use xlink:href="#SVGID_7_"  overflow="visible"/>
		</clipPath>
		<path clip-path="url(#SVGID_8_)" fill="#FFFFFF" d="M43.277,35.375c0.023-2.548-2.022-4.633-4.571-4.656
			c-2.547-0.023-4.633,2.024-4.655,4.572c-0.025,2.548,2.022,4.631,4.57,4.655C41.169,39.97,43.254,37.924,43.277,35.375
			 M43.927,29.815c1.188,0.011,2.161-0.943,2.171-2.134c0.012-1.188-0.944-2.161-2.134-2.172c-1.187-0.011-2.16,0.944-2.171,2.133
			C41.781,28.831,42.736,29.804,43.927,29.815 M225.215,49.997c0.01-0.322,0.034-0.667,0.049-0.867
			c0.01-0.154,0.021-0.293,0.027-0.415c0.167-2.478,0.446-4.72,0.693-6.698c0.201-1.608,0.374-2.996,0.444-4.178
			c0.071-1.112-0.217-2.026-0.856-2.707c-0.644-0.687-1.556-1.035-2.711-1.035c-1.765,0-3.172,0.78-4.199,1.35l-0.041,0.023
			l-0.039,0.024l-0.143,0.089c-0.053,0.034-0.135,0.085-0.222,0.138c-0.056-0.039-0.113-0.078-0.164-0.113
			c-0.802-0.559-2.145-1.495-4.142-1.495c-0.237,0-0.482,0.014-0.726,0.041c0-0.001,0.002-0.001,0.004-0.001
			c-0.004,0-0.007,0.001-0.01,0.001l-0.012,0.001h0.004c-3.363,0.344-6.463,2.438-8.73,5.901c-0.527,0.804-0.997,1.665-1.411,2.571
			c0.092-0.804,0.153-1.53,0.153-2.105c0-3.67-2.387-6.234-5.806-6.234c-2.859,0-5.12,1.452-6.599,2.65
			c-1.096-1.654-2.947-2.65-5.104-2.65c-2.602,0-4.861,1.459-6.432,2.638c-0.695-1.915-2.277-2.638-3.719-2.638
			c-2.528,0-4.854,1.15-6.836,2.229l-0.01,0.005l-0.008,0.005l-0.221,0.122c-0.233,0.128-0.502,0.277-0.786,0.448
			c-0.072-0.781-0.354-1.442-0.845-1.965c-0.644-0.687-1.557-1.035-2.712-1.035c-1.766,0-3.172,0.78-4.2,1.35l-0.04,0.023
			l-0.037,0.023l-0.148,0.093c-0.053,0.033-0.134,0.083-0.219,0.135c-0.057-0.039-0.112-0.078-0.163-0.113
			c-0.803-0.559-2.146-1.495-4.142-1.495c-0.241,0-0.488,0.015-0.735,0.042c-2.892,0.294-5.588,1.886-7.728,4.525
			c-0.842-2.727-3.08-4.635-5.785-4.635c-1.938,0-3.191,0.81-4.028,1.759c-0.524-0.926-1.416-1.718-2.979-1.718
			c-1.755,0-3.4,0.736-4.478,1.359c-0.229,0.125-0.575,0.273-0.943,0.431c-0.994,0.427-2.376,1.025-3.363,2.055
			c-1.845-2.541-4.915-4.044-8.741-4.044c-4.071,0-7.839,1.641-10.612,4.621c-0.594,0.638-1.127,1.328-1.604,2.06
			c0-0.04,0.003-0.083,0.003-0.122c0-3.481-2.724-6.106-6.337-6.106c-2.546,0-4.773,1.516-6.368,2.725
			c-0.09-0.288-0.205-0.58-0.36-0.865c-0.64-1.17-1.733-1.814-3.082-1.814c-2.232,0-5.929,1.331-7.864,2.556
			c-0.094-0.714-0.369-1.323-0.827-1.81c-0.644-0.687-1.557-1.035-2.712-1.035c-1.764,0-3.171,0.78-4.199,1.35l-0.043,0.024
			l-0.041,0.025l-0.136,0.086c-0.054,0.033-0.136,0.086-0.224,0.139c-0.057-0.039-0.113-0.078-0.163-0.113
			c-0.803-0.559-2.146-1.495-4.143-1.495c-0.24,0-0.485,0.014-0.731,0.041c-1.569,0.159-3.079,0.703-4.475,1.584
			c0.945-1.242,1.498-2.958,1.498-4.971c0-3.726-2.493-6.462-6.065-6.651c-0.206-0.011-0.412-0.017-0.615-0.017
			c-1.721,0-4.322,0.395-6.942,2.27c-1.656,1.176-4.741,4.43-5.753,9.135c-0.151,0.702-0.292,1.336-0.422,1.93
			c-0.326,1.473-0.6,2.71-0.862,4.156c-0.919,0.045-2.31,0.483-2.543,2.673c-0.009,0.085-0.018,0.175-0.032,0.27l-0.01,0.069
			l-0.006,0.069l-0.114,1.403l-0.009,0.12c-0.039,0.536-0.074,1-0.074,1.311c0,0.717,0.21,2.24,1.914,2.695
			c-0.047,0.474-0.086,0.9-0.123,1.296c-0.168,1.809-0.269,2.901-0.762,5.248l-0.041,0.196c-0.238,1.164-0.238,1.164-0.736,1.676
			c-0.537,0.543-1.259,1.452-1.259,2.977c0,2.685,2.272,4.56,5.524,4.56c1.815,0,5.527-0.837,7.233-2.148
			c2.049-1.545,2.011-3.836,1.984-5.509c-0.003-0.167-0.006-0.334-0.007-0.502l0.509-5.625c0.091,2.426,0.882,4.569,2.236,5.983
			c1.19,1.244,2.766,1.903,4.558,1.903c2.637,0,4.509-1.255,5.814-2.411c0.074,0.155,0.16,0.309,0.259,0.46
			c0.523,0.794,1.574,1.742,3.623,1.742c1.649,0,4.737-1.013,6.971-2.743c0.491,1.829,2.068,2.953,4.298,2.953
			c0.149,0,0.302-0.005,0.452-0.015c2.624-0.159,4.663-0.56,6.058-1.993c0.475-0.49,0.831-1.052,1.101-1.696
			c0.427,2.278,2.156,3.693,4.643,3.693c2.056,0,6.64-1.209,8.77-3.856c1.857,2.433,4.871,3.866,8.605,3.866
			c4.071,0,7.841-1.641,10.616-4.62c1.409-1.513,2.493-3.31,3.22-5.287c-0.029,0.154-0.056,0.308-0.084,0.459
			c-0.379,2.062-0.707,3.841-0.707,5.188c0,2.588,1.806,4.261,4.602,4.261c0.144,0,0.294-0.005,0.443-0.013
			c3.426-0.168,5.56-0.916,6.918-2.423c1.519-1.686,1.625-3.919,1.549-5.504l0.389-4.685c0.591,0.324,1.319,0.519,2.244,0.519
			c0.45,0,0.879-0.055,1.288-0.154c-0.197,1.093-0.323,2.207-0.37,3.332c-0.125,2.847,0.688,5.411,2.231,7.024
			c1.191,1.244,2.767,1.903,4.559,1.903c2.638,0,4.51-1.255,5.815-2.411c0.074,0.155,0.159,0.309,0.258,0.46
			c0.522,0.794,1.575,1.742,3.622,1.742c1.726,0,5.022-1.109,7.274-2.986c0.389,1.996,1.854,3.196,4.023,3.196
			c0.179,0,0.368-0.008,0.559-0.025c3.048-0.242,5.221-0.67,6.601-2.054c0.215-0.215,0.399-0.441,0.557-0.674
			c0.508,1.766,1.89,2.689,4.07,2.689c1.206,0,5.292-0.188,7.224-2.613c0.223-0.278,0.41-0.607,0.57-0.993
			c0.613,2.257,2.234,3.611,4.427,3.611c0.087,0,0.175-0.002,0.265-0.007h0.022c1.463-0.089,5.482-1.08,7.837-3.325
			c0.305,0.554,0.659,1.056,1.072,1.487c1.19,1.244,2.768,1.903,4.559,1.903c2.638,0,4.51-1.255,5.815-2.412
			c0.074,0.156,0.159,0.31,0.258,0.461c0.524,0.794,1.575,1.742,3.622,1.742c2.779,0,9.632-2.871,9.632-7.204
			C227.113,51.508,226.391,50.455,225.215,49.997 M58.193,40.056c-0.475,0.727-0.905,1.502-1.288,2.313
			c-0.409-0.43-0.889-0.625-1.328-0.711l0.359-4.319c0.596,0.331,1.332,0.532,2.268,0.532c0.77,0,1.483-0.158,2.131-0.441
			C59.563,38.189,58.843,39.065,58.193,40.056 M154.412,34.155c0.003,0,0.006,0,0.009,0c0.004-0.001,0.009-0.002,0.012-0.002
			C154.426,34.154,154.418,34.155,154.412,34.155"/>
	</g>
	<g display="inline">
		<defs>
			<rect id="SVGID_9_" width="227.113" height="101.379"/>
		</defs>
		<clipPath id="SVGID_10_">
			<use xlink:href="#SVGID_9_"  overflow="visible"/>
		</clipPath>
		<path clip-path="url(#SVGID_10_)" fill="#A7A9AC" d="M38.621,39.946c-2.548-0.024-4.595-2.107-4.57-4.655
			c0.022-2.548,2.108-4.595,4.655-4.572c2.549,0.023,4.594,2.108,4.571,4.656C43.254,37.924,41.169,39.97,38.621,39.946"/>
	</g>
	<g display="inline">
		<defs>
			<rect id="SVGID_11_" width="227.113" height="101.379"/>
		</defs>
		<clipPath id="SVGID_12_">
			<use xlink:href="#SVGID_11_"  overflow="visible"/>
		</clipPath>
		<path clip-path="url(#SVGID_12_)" fill="#A7A9AC" d="M43.926,29.815c-1.19-0.011-2.146-0.984-2.133-2.173
			c0.01-1.189,0.983-2.144,2.171-2.133c1.19,0.011,2.145,0.984,2.133,2.172C46.088,28.872,45.114,29.826,43.926,29.815"/>
	</g>
	<g display="inline">
		<defs>
			<rect id="SVGID_13_" width="227.113" height="101.379"/>
		</defs>
		<clipPath id="SVGID_14_">
			<use xlink:href="#SVGID_13_"  overflow="visible"/>
		</clipPath>
		<path clip-path="url(#SVGID_14_)" fill="#6D6E71" d="M57.785,26.132c-3.199-0.164-5.404,1.256-6.275,1.879
			c-1.241,0.881-4.051,3.714-4.955,7.918c-0.638,2.961-1.075,4.704-1.513,7.436c-0.189,0.469-0.281,0.298-1.486,0.243
			c-0.837-0.041-0.723,0.468-0.837,1.227l-0.115,1.403c-0.037,0.505-0.075,1.013-0.075,1.267c0,0.72,0.289,0.808,0.993,0.808
			c1.14,0,1.09,0.372,0.99,1.311c-0.342,3.238-0.312,4.272-0.998,7.535c-0.306,1.483-0.355,1.888-1.307,2.866
			c-0.419,0.424-0.686,0.847-0.686,1.569c0,1.947,2.056,2.54,3.505,2.54c1.485,0,4.754-0.76,6.012-1.736
			c1.409-1.058,1.18-2.801,1.18-4.495l0.68-7.507c0.076-1.386,0-2.039,1.494-2.039c1.066,0,0.99-0.215,1.029-1.402l0.113-1.905
			c0.115-1.526,0.039-1.442-1.218-1.442c-0.472,0-0.672,0.021-0.809-0.087c0.037-0.455,0.043-0.947,0.014-1.487l0.57-6.861
			c0.038-0.382,0.267-2.163,0.8-2.163c0.303,0,0.646,0.764,0.761,1.021c0.648,1.227,1.181,1.821,2.552,1.821
			c2.591,0,3.733-2.5,3.733-5.085C61.936,28.095,60.256,26.263,57.785,26.132"/>
	</g>
	<g display="inline">
		<defs>
			<rect id="SVGID_15_" width="227.113" height="101.379"/>
		</defs>
		<clipPath id="SVGID_16_">
			<use xlink:href="#SVGID_15_"  overflow="visible"/>
		</clipPath>
		<path clip-path="url(#SVGID_16_)" fill="#6D6E71" d="M78.166,37.719c-0.151,2.529-0.835,6.321-1.137,10.871
			c-0.037,0.673-0.19,2.019,0.038,2.695c0.152,0.506,0.417,0.466,0.833,0.506c0.569,0.087,0.948,0.38,0.948,1.051
			c0,2.739-5.53,5.184-7.614,5.184c-3.37,0-1.742-3.58-2.954-3.58c-0.984,0-2.84,3.789-6.741,3.789c-3.485,0-4.923-3.41-4.773-6.826
			c0.305-7.581,4.545-14.661,10.378-15.247c2.653-0.296,3.711,1.724,4.811,1.724c0.416,0,1.098-0.463,1.438-0.673
			c1.061-0.589,2.046-1.097,3.219-1.097C77.673,36.116,78.241,36.541,78.166,37.719 M70.477,42.184c0-0.544-0.151-1.391-0.756-1.347
			c-2.009,0.167-4.546,6.446-4.508,9.143c0,0.629,0.113,1.724,0.871,1.641C68.09,51.454,70.553,44.29,70.477,42.184"/>
	</g>
	<g display="inline">
		<defs>
			<rect id="SVGID_17_" width="227.113" height="101.379"/>
		</defs>
		<clipPath id="SVGID_18_">
			<use xlink:href="#SVGID_17_"  overflow="visible"/>
		</clipPath>
		<path clip-path="url(#SVGID_18_)" fill="#6D6E71" d="M93.47,44.575c0-0.757-0.341-1.35-1.061-1.35
			c-2.764,0-3.257,6.406-3.484,8.973c-0.379,4.637-1.213,5.731-6.099,6.028c-1.362,0.087-2.763-0.338-2.763-2.193
			c0-2.107,1.74-8.425,1.629-12.089c0-0.844-0.264-1.353-1.061-1.353h-0.379c-0.759,0-1.062-0.499-1.062-1.344
			c0-1.178,1.1-2.023,1.933-2.531c1.591-1.05,5.076-2.311,6.892-2.311c2.311,0,1.289,3.704,2.463,3.704
			c0.947,0,4.052-3.75,7.347-3.75c2.197,0,4.319,1.43,4.319,4.086c0,2.991-1.326,8.048-1.326,10.617
			c0,1.684,1.818,0.636,1.818,2.277c0,3.076-5.718,4.887-7.879,4.887c-1.666,0-2.727-0.928-2.727-2.824
			c0-2.147,0.682-4.885,0.985-7.077L93.47,44.575z"/>
	</g>
	<g display="inline">
		<defs>
			<rect id="SVGID_19_" width="227.113" height="101.379"/>
		</defs>
		<clipPath id="SVGID_20_">
			<use xlink:href="#SVGID_19_"  overflow="visible"/>
		</clipPath>
		<path clip-path="url(#SVGID_20_)" fill="#6D6E71" d="M103.501,49.896c0-8.046,5.681-13.99,12.874-13.99
			c4.735,0,8.636,2.825,8.636,8.346c0,8.043-5.682,13.983-12.879,13.983C107.402,58.235,103.501,55.417,103.501,49.896
			 M112.891,44.377c-0.415,2.274-0.759,5.138-0.759,7.457c0,0.969,0.229,1.937,1.214,1.937c1.59,0,1.894-2.525,2.122-3.79
			c0.379-2.153,0.907-5.394,0.907-7.546c0-0.966-0.187-2.06-1.248-2.06C113.535,40.375,113.157,43.07,112.891,44.377"/>
	</g>
	<g display="inline">
		<defs>
			<rect id="SVGID_21_" width="227.113" height="101.379"/>
		</defs>
		<clipPath id="SVGID_22_">
			<use xlink:href="#SVGID_21_"  overflow="visible"/>
		</clipPath>
		<path clip-path="url(#SVGID_22_)" fill="#6D6E71" d="M136.667,52.284c0.227,4.086-1.365,5.689-6.555,5.942
			c-1.399,0.087-2.916-0.338-2.916-2.231c0-2.529,1.517-7.798,1.593-11.713c0.036-1.141-0.076-1.477-1.1-1.477
			c-1.172,0-1.779-0.337-1.779-1.851c0-2.279,3.068-2.952,4.508-3.752c1.021-0.592,2.272-1.097,3.483-1.097
			c2.311,0,1.288,4.005,2.5,4.005c1.097,0,0.985-4.046,4.507-4.046c2.461,0,4.127,2.358,4.127,5.014
			c0,2.571-1.136,5.054-3.712,5.054c-1.361,0-1.892-0.588-2.535-1.809c-0.116-0.254-0.456-1.012-0.761-1.012
			c-0.529,0-0.756,1.768-0.793,2.149L136.667,52.284z"/>
	</g>
	<g display="inline">
		<defs>
			<rect id="SVGID_23_" width="227.113" height="101.379"/>
		</defs>
		<clipPath id="SVGID_24_">
			<use xlink:href="#SVGID_23_"  overflow="visible"/>
		</clipPath>
		<path clip-path="url(#SVGID_24_)" fill="#6D6E71" d="M165.657,37.719c-0.151,2.529-0.834,6.321-1.138,10.871
			c-0.035,0.673-0.189,2.019,0.04,2.695c0.151,0.506,0.416,0.466,0.832,0.506c0.567,0.087,0.948,0.38,0.948,1.051
			c0,2.739-5.53,5.184-7.613,5.184c-3.37,0-1.742-3.58-2.955-3.58c-0.982,0-2.839,3.789-6.74,3.789c-3.485,0-4.923-3.41-4.772-6.826
			c0.304-7.581,4.545-14.661,10.376-15.247c2.652-0.296,3.712,1.724,4.811,1.724c0.417,0,1.097-0.463,1.439-0.673
			c1.06-0.589,2.044-1.097,3.22-1.097C165.165,36.116,165.733,36.541,165.657,37.719 M157.969,42.184
			c0-0.544-0.151-1.391-0.759-1.347c-2.007,0.167-4.543,6.446-4.506,9.143c0,0.629,0.113,1.724,0.872,1.641
			C155.582,51.454,158.044,44.29,157.969,42.184"/>
	</g>
	<g display="inline">
		<defs>
			<rect id="SVGID_25_" width="227.113" height="101.379"/>
		</defs>
		<clipPath id="SVGID_26_">
			<use xlink:href="#SVGID_25_"  overflow="visible"/>
		</clipPath>
		<path clip-path="url(#SVGID_26_)" fill="#6D6E71" d="M189.65,39.299c0.076,0.296,0.076,0.804,0.417,0.804
			c0.605,0,3.258-3.796,7.31-3.796c2.31,0,3.786,1.69,3.786,4.216c0,2.4-1.249,8.381-1.249,10.282c0,2.148,2.007,0.378,2.007,2.232
			c0,3.116-5.681,5.015-7.726,5.136c-1.741,0.088-2.612-1.176-2.803-2.99c0-3.663,1.25-7.244,1.25-10.614
			c0-0.763-0.188-1.352-0.947-1.352c-2.916,0-2.954,5.983-3.144,7.966c-0.226,2.276-0.493,4.383-1.096,5.138
			c-1.176,1.477-3.979,1.852-5.645,1.852c-1.591,0-2.271-0.545-2.271-2.402c0-3.326,1.437-7.369,1.437-10.992
			c0-0.886-0.075-1.562-1.021-1.562c-2.651,0-2.993,7.164-3.107,9.061c-0.34,4.127-0.076,5.437-6.438,5.943
			c-1.478,0.125-2.499-0.423-2.499-2.276c0-1.56,1.514-8.341,1.514-11.883c0-0.802-0.114-1.388-0.909-1.388
			c-0.832,0-1.817,0-1.817-1.309c0-1.558,1.893-2.483,2.953-3.075c1.782-0.97,3.826-1.983,5.871-1.983
			c1.364,0,1.931,1.013,2.045,2.402c0,0.382,0.075,1.394,0.568,1.394c0.91,0,3.977-3.796,7.537-3.796
			C187.455,36.307,189.119,37.32,189.65,39.299"/>
	</g>
	<g display="inline">
		<defs>
			<rect id="SVGID_27_" width="227.113" height="101.379"/>
		</defs>
		<clipPath id="SVGID_28_">
			<use xlink:href="#SVGID_27_"  overflow="visible"/>
		</clipPath>
		<path clip-path="url(#SVGID_28_)" fill="#6D6E71" d="M224.412,37.719c-0.15,2.529-0.832,6.321-1.135,10.871
			c-0.037,0.673-0.191,2.019,0.039,2.695c0.15,0.506,0.414,0.466,0.832,0.506c0.567,0.087,0.946,0.38,0.946,1.051
			c0,2.739-5.529,5.184-7.613,5.184c-3.37,0-1.742-3.58-2.952-3.58c-0.986,0-2.841,3.789-6.743,3.789
			c-3.485,0-4.923-3.41-4.771-6.826c0.303-7.581,4.545-14.661,10.375-15.247c2.651-0.296,3.712,1.724,4.812,1.724
			c0.417,0,1.098-0.463,1.44-0.673c1.06-0.589,2.044-1.097,3.219-1.097C223.92,36.116,224.488,36.541,224.412,37.719
			 M216.725,42.184c0-0.544-0.152-1.391-0.758-1.347c-2.007,0.167-4.544,6.446-4.508,9.143c0,0.629,0.115,1.724,0.872,1.641
			C214.337,51.454,216.799,44.29,216.725,42.184"/>
	</g>
</g>
<g>
	<circle fill="#FFFFFF" cx="49.545" cy="44.674" r="28.37"/>
	<g>
		<path fill="#B3282D" d="M62.042,85.534h-50.61c-6.087,0-11.039-4.55-11.039-10.142V16.439c0-5.592,4.952-10.141,11.039-10.141
			h19.084l0.674-1.308c1.504-4.321,4.261-5.233,6.321-5.233h23.872c2.06,0,4.816,0.913,6.322,5.233l0.674,1.308h19.081
			c6.087,0,11.04,4.549,11.04,10.141v58.954c0,5.592-4.953,10.142-11.04,10.142h-9.288L60.113,100.84L62.042,85.534z M49.447,18.427
			c-14.581,0-26.444,11.862-26.444,26.441S34.866,71.31,49.447,71.311c14.58,0,26.442-11.861,26.442-26.441
			C75.89,30.29,64.027,18.427,49.447,18.427z"/>
		<path fill="#FFFFFF" d="M61.382,1.8c2.45,0,3.697,1.787,4.436,3.992l1.313,2.549h20.327c4.97,0,8.996,3.624,8.996,8.097v58.954
			c0,4.473-4.026,8.098-8.996,8.098H77.422L62.798,95.885L64.36,83.49H11.432c-4.968,0-8.995-3.625-8.995-8.098V16.438
			c0-4.472,4.027-8.097,8.995-8.097h20.33l1.313-2.549C33.814,3.587,35.062,1.8,37.511,1.8H61.382 M49.447,73.355
			c15.731,0,28.486-12.754,28.486-28.485c0-15.732-12.755-28.486-28.486-28.486c-15.734,0-28.488,12.753-28.488,28.485
			C20.959,60.601,33.713,73.354,49.447,73.355 M61.382-2.288H37.511c-2.215,0-6.187,0.849-8.202,6.465L29.27,4.253H11.432
			c-7.214,0-13.083,5.466-13.083,12.185v58.954c0,6.719,5.869,12.186,13.083,12.186h48.292l-0.983,7.795l-1.314,10.421l8.013-6.791
			l13.48-11.425h8.538c7.215,0,13.084-5.467,13.084-12.186V16.438c0-6.719-5.869-12.185-13.084-12.185H69.625l-0.04-0.077
			C67.568-1.439,63.596-2.288,61.382-2.288L61.382-2.288z M49.447,69.267c-13.454-0.001-24.4-10.946-24.4-24.398
			c0-13.453,10.946-24.397,24.399-24.397c13.453,0,24.398,10.945,24.398,24.398C73.845,58.322,62.9,69.267,49.447,69.267
			L49.447,69.267L49.447,69.267z"/>
	</g>
	<g>
		<path fill="#FFFFFF" d="M244.618,39.019c0-3.645-3.938-5.306-7.596-5.306c-2.512,0-5.085,0.752-7.06,2.064
			c-2.521,1.675-3.91,4.172-3.91,7.031c0,2.568,1.111,4.491,2.287,5.995c-0.195-0.041-0.405-0.063-0.632-0.063
			c-0.988,0-1.815,0.441-2.445,1.118c-0.165-0.104-0.339-0.199-0.529-0.274c0.011-0.321,0.035-0.664,0.049-0.864
			c0.011-0.153,0.021-0.292,0.027-0.413c0.167-2.468,0.445-4.701,0.691-6.671c0.2-1.601,0.372-2.984,0.442-4.161
			c0.071-1.108-0.217-2.018-0.853-2.696c-0.642-0.684-1.55-1.031-2.699-1.031c-1.758,0-3.16,0.777-4.183,1.345l-0.041,0.023
			l-0.039,0.024l-0.143,0.088c-0.053,0.034-0.134,0.085-0.221,0.138c-0.056-0.039-0.112-0.078-0.163-0.113
			c-0.799-0.557-2.136-1.488-4.125-1.488c-0.237,0-0.48,0.013-0.723,0.04c0,0,0.002,0,0.004,0c-0.003,0-0.007,0.001-0.011,0.001
			l-0.007,0.001c-3.349,0.343-6.437,2.429-8.694,5.877c-0.525,0.801-0.993,1.659-1.405,2.56c0.092-0.8,0.151-1.523,0.151-2.096
			c0-3.656-2.378-6.209-5.782-6.209c-2.847,0-5.1,1.446-6.572,2.639c-1.092-1.647-2.936-2.639-5.085-2.639
			c-2.59,0-4.841,1.454-6.405,2.628c-0.693-1.908-2.268-2.628-3.704-2.628c-2.519,0-4.835,1.146-6.808,2.22l-0.011,0.005
			l-0.008,0.005l-0.22,0.122c-0.232,0.127-0.5,0.275-0.782,0.446c-0.072-0.777-0.353-1.435-0.842-1.957
			c-0.642-0.684-1.55-1.031-2.7-1.031c-1.76,0-3.16,0.777-4.184,1.345l-0.039,0.022l-0.037,0.024l-0.148,0.092
			c-0.053,0.033-0.133,0.083-0.218,0.135c-0.056-0.039-0.112-0.078-0.163-0.113c-0.799-0.557-2.136-1.488-4.125-1.488
			c-0.24,0-0.486,0.014-0.732,0.041c-2.88,0.293-5.565,1.879-7.696,4.507c-0.838-2.716-3.067-4.616-5.762-4.616
			c-1.93,0-3.178,0.807-4.011,1.753c-0.522-0.923-1.411-1.712-2.966-1.712c-1.748,0-3.388,0.733-4.461,1.353
			c-0.228,0.124-0.573,0.273-0.938,0.43c-0.991,0.426-2.367,1.021-3.351,2.046c-1.838-2.53-4.895-4.027-8.706-4.027
			c-4.054,0-7.808,1.634-10.571,4.602c-0.592,0.636-1.123,1.324-1.598,2.052c0-0.04,0.003-0.083,0.003-0.122
			c0-3.467-2.713-6.081-6.312-6.081c-2.536,0-4.753,1.51-6.342,2.714c-0.09-0.287-0.204-0.578-0.359-0.861
			c-0.636-1.165-1.726-1.807-3.069-1.807c-2.224,0-5.905,1.326-7.832,2.546c-0.094-0.711-0.368-1.318-0.824-1.803
			c-0.642-0.684-1.551-1.031-2.701-1.031c-1.756,0-3.158,0.777-4.182,1.345l-0.043,0.024l-0.042,0.025l-0.135,0.085
			c-0.054,0.034-0.136,0.086-0.224,0.139c-0.056-0.039-0.112-0.078-0.162-0.113c-0.799-0.557-2.137-1.488-4.125-1.488
			c-0.239,0-0.484,0.013-0.728,0.04c-1.563,0.158-3.067,0.7-4.458,1.578c0.942-1.238,1.492-2.947,1.492-4.952
			c0-3.711-2.483-6.435-6.04-6.624c-0.205-0.011-0.411-0.016-0.613-0.016c-1.714,0-4.305,0.393-6.913,2.261
			c-1.65,1.171-4.723,4.411-5.73,9.098c-0.151,0.699-0.29,1.33-0.421,1.922c-0.324,1.467-0.597,2.7-0.859,4.14
			c-0.915,0.044-2.3,0.481-2.532,2.663c-0.009,0.084-0.018,0.174-0.032,0.269l-0.01,0.068l-0.006,0.068l-0.114,1.398l-0.009,0.119
			c-0.039,0.534-0.073,0.996-0.073,1.306c0,0.715,0.209,2.232,1.906,2.685c-0.047,0.473-0.086,0.896-0.122,1.291
			c-0.167,1.802-0.268,2.889-0.76,5.226L41.756,56.5c-0.237,1.16-0.237,1.16-0.733,1.669c-0.534,0.541-1.254,1.447-1.254,2.966
			c0,2.674,2.262,4.541,5.501,4.541c1.808,0,5.505-0.833,7.204-2.14c2.041-1.539,2.003-3.82,1.976-5.486
			c-0.003-0.167-0.005-0.333-0.006-0.5l0.507-5.602c0.09,2.416,0.878,4.551,2.226,5.959c1.185,1.24,2.755,1.895,4.54,1.895
			c2.626,0,4.491-1.25,5.791-2.401c0.073,0.154,0.159,0.307,0.258,0.458c0.52,0.791,1.568,1.734,3.608,1.734
			c1.643,0,4.718-1.009,6.944-2.731c0.488,1.82,2.059,2.94,4.28,2.94c0.149,0,0.3-0.005,0.451-0.014
			c2.613-0.159,4.643-0.558,6.032-1.986c0.474-0.488,0.828-1.048,1.097-1.689c0.426,2.269,2.147,3.678,4.624,3.678
			c2.048,0,6.614-1.204,8.735-3.84c1.85,2.422,4.852,3.85,8.572,3.85c4.055,0,7.81-1.635,10.573-4.601
			c1.404-1.508,2.484-3.297,3.207-5.266c-0.029,0.154-0.056,0.308-0.084,0.458c-0.378,2.053-0.704,3.825-0.704,5.166
			c0,2.578,1.8,4.244,4.584,4.244c0.144,0,0.292-0.004,0.441-0.013c3.413-0.167,5.538-0.912,6.89-2.412
			c1.513-1.679,1.619-3.903,1.543-5.482l0.388-4.667c0.588,0.323,1.314,0.518,2.235,0.518c0.448,0,0.875-0.055,1.282-0.153
			c-0.196,1.087-0.322,2.197-0.367,3.318c-0.125,2.836,0.684,5.39,2.221,6.996c1.186,1.24,2.756,1.895,4.541,1.895
			c2.627,0,4.491-1.25,5.791-2.401c0.074,0.154,0.159,0.307,0.258,0.458c0.519,0.791,1.568,1.734,3.607,1.734
			c1.719,0,5.002-1.104,7.244-2.974c0.387,1.989,1.847,3.183,4.007,3.183c0.178,0,0.366-0.008,0.557-0.025
			c3.035-0.241,5.199-0.667,6.574-2.045c0.214-0.215,0.397-0.439,0.554-0.673c0.505,1.761,1.882,2.68,4.054,2.68
			c1.201,0,5.27-0.188,7.195-2.604c0.221-0.277,0.408-0.603,0.567-0.988c0.61,2.248,2.225,3.597,4.41,3.597
			c0.085,0,0.174-0.002,0.263-0.007l0.023,0c1.457-0.088,5.46-1.076,7.806-3.312c0.303,0.551,0.656,1.052,1.067,1.481
			c1.185,1.24,2.756,1.895,4.541,1.895c2.626,0,4.491-1.251,5.791-2.402c0.074,0.155,0.159,0.308,0.258,0.459
			c0.52,0.791,1.568,1.734,3.607,1.734c1.826,0,5.416-1.245,7.649-3.331c0.612,0.974,1.574,1.77,2.852,2.331
			c1.994,0.875,4.245,0.97,5.12,0.97c5.585,0,11.238-3.051,11.238-8.884c0-3.061-1.593-5.2-3.068-6.816
			C242.69,43.859,244.618,42.048,244.618,39.019z M58.385,39.684c-0.474,0.724-0.901,1.496-1.283,2.304
			c-0.406-0.428-0.886-0.622-1.322-0.708l0.358-4.302c0.594,0.329,1.326,0.53,2.259,0.53c0.767,0,1.477-0.157,2.123-0.438
			C59.749,37.824,59.032,38.696,58.385,39.684z"/>
		<circle fill="#FFFFFF" cx="44.194" cy="27.34" r="2.144"/>
		<circle fill="#FFFFFF" cx="38.934" cy="34.979" r="4.595"/>
		<path fill="#FFFFFF" d="M154.216,33.806c0.004,0,0.007,0,0.01-0.001c0.004,0,0.009-0.001,0.012-0.001
			C154.231,33.805,154.224,33.806,154.216,33.806z"/>
		<polygon fill="#FFFFFF" points="212.734,33.807 212.739,33.806 212.739,33.806 		"/>
	</g>
	<g>
		<circle fill="#A7A9AC" cx="38.934" cy="34.979" r="4.595"/>
		<circle fill="#A7A9AC" cx="44.194" cy="27.34" r="2.144"/>
	</g>
	<g>
		<path fill="#6D6E71" d="M57.978,25.815c-3.187-0.163-5.383,1.251-6.25,1.872c-1.236,0.877-4.035,3.698-4.935,7.885
			c-0.635,2.949-1.07,4.685-1.507,7.406c-0.188,0.467-0.28,0.296-1.48,0.242c-0.834-0.041-0.72,0.466-0.834,1.222l-0.114,1.398
			c-0.037,0.503-0.075,1.008-0.075,1.262c0,0.717,0.288,0.804,0.989,0.804c1.135,0,1.086,0.37,0.986,1.306
			c-0.34,3.227-0.31,4.254-0.994,7.505c-0.304,1.477-0.353,1.88-1.301,2.854c-0.417,0.423-0.682,0.844-0.682,1.563
			c0,1.94,2.048,2.53,3.49,2.53c1.479,0,4.734-0.757,5.987-1.73c1.404-1.054,1.175-2.789,1.175-4.476l0.678-7.478
			c0.075-1.38,0-2.032,1.488-2.032c1.061,0,0.986-0.213,1.024-1.396l0.113-1.897c0.115-1.52,0.039-1.437-1.213-1.437
			c-0.47,0-0.669,0.02-0.806-0.086c0.037-0.454,0.043-0.944,0.014-1.481l0.568-6.834c0.038-0.38,0.266-2.154,0.797-2.154
			c0.302,0,0.644,0.761,0.758,1.017c0.645,1.223,1.177,1.814,2.542,1.814c2.579,0,3.718-2.49,3.718-5.064
			C62.113,27.771,60.439,25.946,57.978,25.815z"/>
	</g>
	<g>
		<g>
			<path fill="#6D6E71" d="M78.277,37.356c-0.151,2.519-0.831,6.296-1.133,10.827c-0.037,0.671-0.189,2.011,0.038,2.685
				c0.151,0.503,0.415,0.464,0.829,0.503c0.566,0.087,0.944,0.379,0.944,1.048c0,2.728-5.507,5.164-7.582,5.164
				c-3.357,0-1.735-3.566-2.942-3.566c-0.98,0-2.829,3.775-6.714,3.775c-3.471,0-4.903-3.397-4.753-6.8
				c0.304-7.551,4.527-14.602,10.336-15.185c2.642-0.294,3.696,1.717,4.792,1.717c0.414,0,1.093-0.46,1.432-0.67
				c1.057-0.586,2.039-1.093,3.207-1.093C77.786,35.759,78.352,36.183,78.277,37.356z M70.619,41.802
				c0-0.542-0.151-1.385-0.753-1.341c-2.001,0.166-4.527,6.42-4.49,9.107c0,0.626,0.112,1.717,0.868,1.634
				C68.242,51.035,70.695,43.901,70.619,41.802z"/>
		</g>
		<g>
			<path fill="#6D6E71" d="M93.52,44.184c0-0.754-0.341-1.344-1.057-1.344c-2.753,0-3.244,6.38-3.47,8.936
				c-0.378,4.619-1.207,5.708-6.074,6.004c-1.357,0.086-2.753-0.337-2.753-2.184c0-2.098,1.734-8.391,1.623-12.04
				c0-0.841-0.263-1.348-1.056-1.348h-0.378c-0.755,0-1.057-0.497-1.057-1.339c0-1.174,1.096-2.016,1.924-2.522
				c1.585-1.045,5.055-2.301,6.865-2.301c2.301,0,1.284,3.69,2.453,3.69c0.943,0,4.035-3.736,7.317-3.736
				c2.188,0,4.301,1.425,4.301,4.07c0,2.978-1.321,8.016-1.321,10.574c0,1.677,1.811,0.633,1.811,2.268
				c0,3.064-5.696,4.868-7.847,4.868c-1.659,0-2.716-0.925-2.716-2.813c0-2.137,0.679-4.865,0.981-7.049L93.52,44.184z"/>
		</g>
		<g>
			<path fill="#6D6E71" d="M103.51,49.483c0-8.013,5.659-13.932,12.825-13.932c4.716,0,8.601,2.813,8.601,8.311
				c0,8.011-5.659,13.929-12.827,13.929C107.395,57.79,103.51,54.983,103.51,49.483z M112.865,43.987
				c-0.414,2.265-0.756,5.117-0.756,7.427c0,0.964,0.228,1.929,1.208,1.929c1.584,0,1.887-2.515,2.114-3.775
				c0.377-2.144,0.903-5.372,0.903-7.516c0-0.961-0.186-2.051-1.243-2.051C113.505,40.001,113.129,42.685,112.865,43.987z"/>
		</g>
		<g>
			<path fill="#6D6E71" d="M136.543,51.862c0.225,4.07-1.359,5.667-6.528,5.919c-1.393,0.086-2.904-0.337-2.904-2.223
				c0-2.519,1.511-7.766,1.586-11.665c0.036-1.136-0.075-1.471-1.094-1.471c-1.169,0-1.772-0.335-1.772-1.843
				c0-2.27,3.054-2.94,4.489-3.737c1.017-0.59,2.263-1.092,3.47-1.092c2.301,0,1.282,3.988,2.49,3.988c1.092,0,0.98-4.03,4.488-4.03
				c2.451,0,4.111,2.349,4.111,4.994c0,2.561-1.131,5.033-3.696,5.033c-1.357,0-1.886-0.586-2.526-1.802
				c-0.115-0.252-0.453-1.008-0.756-1.008c-0.527,0-0.754,1.762-0.791,2.14L136.543,51.862z"/>
		</g>
		<g>
			<path fill="#6D6E71" d="M165.417,37.356c-0.15,2.519-0.83,6.296-1.133,10.827c-0.036,0.671-0.188,2.011,0.039,2.685
				c0.151,0.503,0.414,0.464,0.829,0.503c0.565,0.087,0.943,0.379,0.943,1.048c0,2.728-5.508,5.164-7.582,5.164
				c-3.357,0-1.735-3.566-2.942-3.566c-0.979,0-2.828,3.775-6.714,3.775c-3.471,0-4.903-3.397-4.752-6.8
				c0.303-7.551,4.526-14.602,10.334-15.185c2.642-0.294,3.697,1.717,4.792,1.717c0.415,0,1.093-0.46,1.434-0.67
				c1.055-0.586,2.036-1.093,3.207-1.093C164.927,35.759,165.493,36.183,165.417,37.356z M157.76,41.802
				c0-0.542-0.151-1.385-0.755-1.341c-1.999,0.166-4.525,6.42-4.488,9.107c0,0.626,0.112,1.717,0.868,1.634
				C155.384,51.035,157.836,43.901,157.76,41.802z"/>
		</g>
		<g>
			<path fill="#6D6E71" d="M189.313,38.929c0.075,0.295,0.075,0.802,0.415,0.802c0.604,0,3.245-3.781,7.281-3.781
				c2.301,0,3.771,1.683,3.771,4.198c0,2.39-1.244,8.348-1.244,10.241c0,2.14,1.999,0.376,1.999,2.224
				c0,3.103-5.659,4.994-7.695,5.116c-1.735,0.086-2.602-1.172-2.792-2.978c0-3.649,1.245-7.215,1.245-10.572
				c0-0.759-0.188-1.345-0.943-1.345c-2.904,0-2.942,5.958-3.131,7.933c-0.226,2.267-0.492,4.366-1.092,5.118
				c-1.171,1.471-3.963,1.845-5.622,1.845c-1.585,0-2.262-0.543-2.262-2.393c0-3.313,1.432-7.341,1.432-10.948
				c0-0.883-0.075-1.555-1.018-1.555c-2.64,0-2.98,7.135-3.093,9.023c-0.339,4.111-0.076,5.415-6.412,5.919
				c-1.472,0.125-2.489-0.421-2.489-2.267c0-1.555,1.508-8.308,1.508-11.835c0-0.799-0.114-1.384-0.906-1.384
				c-0.829,0-1.81,0-1.81-1.303c0-1.552,1.886-2.473,2.941-3.062c1.775-0.966,3.811-1.975,5.847-1.975
				c1.358,0,1.923,1.009,2.036,2.392c0,0.381,0.075,1.389,0.566,1.389c0.906,0,3.961-3.781,7.506-3.781
				C187.127,35.949,188.784,36.959,189.313,38.929z"/>
		</g>
		<g>
			<path fill="#6D6E71" d="M223.936,37.356c-0.15,2.519-0.83,6.296-1.132,10.827c-0.037,0.671-0.189,2.011,0.04,2.685
				c0.149,0.503,0.413,0.464,0.828,0.503c0.565,0.087,0.942,0.379,0.942,1.048c0,2.728-5.506,5.164-7.582,5.164
				c-3.356,0-1.735-3.566-2.941-3.566c-0.981,0-2.829,3.775-6.715,3.775c-3.472,0-4.903-3.397-4.752-6.8
				c0.302-7.551,4.526-14.602,10.333-15.185c2.641-0.294,3.697,1.717,4.792,1.717c0.415,0,1.094-0.46,1.434-0.67
				c1.056-0.586,2.036-1.093,3.207-1.093C223.445,35.759,224.01,36.183,223.936,37.356z M216.279,41.802
				c0-0.542-0.152-1.385-0.756-1.341c-1.998,0.166-4.525,6.42-4.488,9.107c0,0.626,0.113,1.717,0.868,1.634
				C213.901,51.035,216.353,43.901,216.279,41.802z"/>
		</g>
		<g>
			<path fill="#6D6E71" d="M240.818,42.092c-1.534,0-1.534-2.44-2.99-2.44c-0.652,0-1.189,0.506-1.189,1.22
				c0,2.737,5.482,4.757,5.482,9.807c0,5.22-5.598,7.113-9.468,7.113c-2.453,0-6.977-0.757-6.977-4.293
				c0-1.263,0.729-2.989,2.032-2.989c1.61,0,1.342,2.821,3.258,2.821c0.766,0,1.648-0.464,1.648-1.39
				c0-2.231-4.791-4.419-4.791-9.133c0-5.05,5.251-7.324,9.199-7.324c1.993,0,5.825,0.716,5.825,3.535
				C242.848,40.282,242.158,42.092,240.818,42.092z"/>
		</g>
	</g>
</g>
</svg>
