<?xml version="1.0" encoding="utf-8"?>
<!-- Generator: Adobe Illustrator 17.0.0, SVG Export Plug-In . SVG Version: 6.00 Build 0)  -->
<!DOCTYPE svg PUBLIC "-//W3C//DTD SVG 1.1//EN" "http://www.w3.org/Graphics/SVG/1.1/DTD/svg11.dtd">
<svg version="1.1" id="Layer_1" xmlns="http://www.w3.org/2000/svg" xmlns:xlink="http://www.w3.org/1999/xlink" x="0px" y="0px"
	 width="238.278px" height="93.251px" viewBox="1 1.216 238.278 93.251" enable-background="new 1 1.216 238.278 93.251"
	 xml:space="preserve">
<g>
	<g>
		<path fill="none" d="M37.131,38.655c-2.516-0.024-4.536-2.08-4.512-4.595c0.021-2.515,2.081-4.536,4.596-4.513
			c2.515,0.023,4.535,2.08,4.512,4.596C41.704,36.658,39.646,38.679,37.131,38.655z M42.368,28.655
			c-1.175-0.011-2.117-0.971-2.106-2.145c0.011-1.173,0.971-2.116,2.143-2.105c1.175,0.01,2.118,0.971,2.107,2.144
			C44.502,27.723,43.541,28.665,42.368,28.655z"/>
		<g>
			<path d="M87.962,55.048c-0.267,0.635-0.618,1.191-1.088,1.674c-1.377,1.415-3.389,1.81-5.979,1.968
				c-0.149,0.009-0.299,0.014-0.447,0.014c-2.201,0-3.758-1.11-4.242-2.914c-1.243,0.962-2.754,1.699-4.127,2.16
				c-4.873,8.475-14.011,14.187-24.488,14.187c-15.594-0.001-28.235-12.641-28.235-28.234c0-15.592,12.641-28.233,28.235-28.233
				c11.716,0,21.765,7.139,26.038,17.303c0.321-0.054,0.653-0.092,1.003-0.092c1.14,0,2.041,0.344,2.677,1.022
				c0.452,0.481,0.723,1.083,0.816,1.787c1.91-1.209,5.559-2.523,7.763-2.523c1.331,0,2.411,0.636,3.042,1.791
				c0.153,0.281,0.267,0.569,0.356,0.853c1.277-0.968,2.964-2.134,4.896-2.541V15.725c0-4.433-3.991-8.025-8.916-8.025H65.121
				l-1.302-2.526c-0.733-2.186-1.969-3.957-4.397-3.957h-23.66c-2.427,0-3.664,1.771-4.396,3.957L30.065,7.7H9.915
				C4.991,7.7,1,11.292,1,15.725v58.431c0,4.433,3.991,8.026,8.915,8.026h52.458l-1.549,12.285l14.494-12.285h9.948
				c4.925,0,8.916-3.593,8.916-8.026V58.517c-0.63,0.116-1.196,0.177-1.639,0.177C90.09,58.693,88.384,57.297,87.962,55.048z"/>
		</g>
		<circle fill="#231F20" cx="42.387" cy="26.53" r="2.125"/>
		<circle fill="#231F20" cx="37.173" cy="34.101" r="4.554"/>
		<path fill="#FFFFFF" d="M151.433,32.939c0.004,0,0.007,0,0.01-0.001c0.004,0,0.009-0.001,0.012-0.001
			C151.447,32.938,151.44,32.938,151.433,32.939z"/>
		<polygon fill="#FFFFFF" points="209.432,32.939 209.436,32.938 209.436,32.938 		"/>
	</g>
	<g>
		<circle cx="37.173" cy="34.101" r="4.554"/>
		<circle cx="42.387" cy="26.529" r="2.125"/>
	</g>
	<g>
		<path d="M56.048,25.019c-3.158-0.162-5.335,1.24-6.194,1.855c-1.225,0.87-3.999,3.665-4.891,7.816
			c-0.63,2.923-1.061,4.644-1.494,7.341c-0.187,0.463-0.278,0.294-1.466,0.239c-0.827-0.04-0.714,0.462-0.827,1.212l-0.113,1.385
			c-0.036,0.498-0.074,0.999-0.074,1.25c0,0.71,0.286,0.797,0.98,0.797c1.125,0,1.076,0.367,0.977,1.294
			c-0.337,3.198-0.307,4.216-0.985,7.438c-0.301,1.464-0.35,1.864-1.29,2.829c-0.413,0.419-0.676,0.836-0.676,1.549
			c0,1.923,2.029,2.508,3.459,2.508c1.466,0,4.692-0.75,5.934-1.715c1.391-1.044,1.165-2.764,1.165-4.436l0.672-7.411
			c0.075-1.368,0-2.014,1.475-2.014c1.052,0,0.977-0.211,1.015-1.383l0.112-1.88c0.114-1.506,0.038-1.424-1.202-1.424
			c-0.466,0-0.663,0.02-0.799-0.085c0.037-0.45,0.043-0.935,0.014-1.468l0.563-6.773c0.038-0.377,0.263-2.135,0.79-2.135
			c0.299,0,0.638,0.754,0.751,1.008c0.64,1.212,1.166,1.798,2.52,1.798c2.557,0,3.685-2.468,3.685-5.019
			C60.146,26.956,58.487,25.148,56.048,25.019z"/>
	</g>
	<g>
		<g>
			<path d="M76.167,36.457c-0.149,2.497-0.824,6.24-1.123,10.731c-0.037,0.665-0.187,1.993,0.038,2.661
				c0.149,0.498,0.411,0.46,0.822,0.498c0.561,0.086,0.935,0.376,0.935,1.038c0,2.704-5.458,5.118-7.515,5.118
				c-3.327,0-1.72-3.535-2.916-3.535c-0.971,0-2.803,3.741-6.655,3.741c-3.44,0-4.86-3.367-4.711-6.739
				c0.301-7.484,4.487-14.472,10.244-15.051c2.619-0.292,3.663,1.702,4.75,1.702c0.41,0,1.084-0.456,1.419-0.664
				c1.048-0.581,2.021-1.083,3.178-1.083C75.681,34.874,76.241,35.294,76.167,36.457z M68.577,40.864
				c0-0.537-0.149-1.372-0.746-1.329c-1.983,0.164-4.487,6.363-4.45,9.026c0,0.62,0.111,1.702,0.86,1.619
				C66.221,50.015,68.652,42.943,68.577,40.864z"/>
		</g>
		<g>
			<path d="M91.275,43.225c0-0.747-0.338-1.332-1.048-1.332c-2.728,0-3.215,6.323-3.439,8.857c-0.374,4.578-1.197,5.658-6.02,5.951
				c-1.345,0.086-2.728-0.334-2.728-2.165c0-2.079,1.719-8.316,1.608-11.933c0-0.834-0.261-1.336-1.047-1.336h-0.375
				c-0.748,0-1.048-0.493-1.048-1.327c0-1.163,1.086-1.998,1.907-2.499c1.571-1.036,5.011-2.281,6.804-2.281
				c2.281,0,1.272,3.657,2.431,3.657c0.934,0,3.999-3.703,7.252-3.703c2.168,0,4.263,1.412,4.263,4.034
				c0,2.952-1.309,7.945-1.309,10.48c0,1.662,1.795,0.627,1.795,2.247c0,3.037-5.645,4.825-7.778,4.825
				c-1.645,0-2.692-0.916-2.692-2.788c0-2.118,0.673-4.821,0.972-6.986L91.275,43.225z"/>
		</g>
		<g>
			<path d="M101.176,48.476c0-7.942,5.608-13.809,12.711-13.809c4.674,0,8.525,2.788,8.525,8.237c0,7.94-5.609,13.805-12.713,13.805
				C105.027,56.71,101.176,53.927,101.176,48.476z M110.448,43.029c-0.41,2.245-0.75,5.072-0.75,7.361
				c0,0.956,0.226,1.912,1.198,1.912c1.57,0,1.87-2.493,2.095-3.742c0.374-2.125,0.895-5.324,0.895-7.449
				c0-0.953-0.185-2.033-1.232-2.033C111.083,39.078,110.71,41.739,110.448,43.029z"/>
		</g>
		<g>
			<path d="M133.917,50.834c0.223,4.034-1.347,5.616-6.47,5.866c-1.381,0.086-2.878-0.334-2.878-2.204
				c0-2.497,1.497-7.697,1.571-11.562c0.036-1.126-0.074-1.458-1.084-1.458c-1.158,0-1.757-0.332-1.757-1.827
				c0-2.25,3.027-2.914,4.45-3.704c1.008-0.585,2.243-1.082,3.439-1.082c2.28,0,1.271,3.953,2.468,3.953
				c1.083,0,0.971-3.994,4.448-3.994c2.429,0,4.075,2.328,4.075,4.95c0,2.538-1.121,4.989-3.664,4.989
				c-1.345,0-1.869-0.581-2.504-1.786c-0.114-0.25-0.449-0.999-0.75-0.999c-0.523,0-0.747,1.746-0.784,2.121L133.917,50.834z"/>
		</g>
		<g>
			<path d="M162.534,36.457c-0.149,2.497-0.822,6.24-1.123,10.731c-0.036,0.665-0.187,1.993,0.039,2.661
				c0.149,0.498,0.41,0.46,0.822,0.498c0.56,0.086,0.935,0.376,0.935,1.038c0,2.704-5.459,5.118-7.515,5.118
				c-3.327,0-1.719-3.535-2.916-3.535c-0.97,0-2.803,3.741-6.654,3.741c-3.44,0-4.86-3.367-4.71-6.739
				c0.3-7.484,4.486-14.472,10.242-15.051c2.619-0.292,3.664,1.702,4.749,1.702c0.411,0,1.083-0.456,1.421-0.664
				c1.045-0.581,2.017-1.083,3.178-1.083C162.049,34.874,162.609,35.294,162.534,36.457z M154.945,40.864
				c0-0.537-0.149-1.372-0.748-1.329c-1.981,0.164-4.485,6.363-4.449,9.026c0,0.62,0.111,1.702,0.861,1.619
				C152.59,50.015,155.02,42.943,154.945,40.864z"/>
		</g>
		<g>
			<path d="M186.218,38.015c0.075,0.293,0.075,0.795,0.411,0.795c0.598,0,3.216-3.747,7.216-3.747c2.28,0,3.738,1.668,3.738,4.161
				c0,2.369-1.233,8.274-1.233,10.15c0,2.121,1.981,0.373,1.981,2.204c0,3.076-5.608,4.949-7.626,5.07
				c-1.719,0.085-2.579-1.162-2.767-2.952c0-3.617,1.234-7.151,1.234-10.479c0-0.752-0.186-1.333-0.935-1.333
				c-2.878,0-2.916,5.906-3.103,7.862c-0.224,2.247-0.487,4.327-1.083,5.073c-1.161,1.458-3.928,1.829-5.572,1.829
				c-1.57,0-2.242-0.538-2.242-2.372c0-3.284,1.419-7.275,1.419-10.851c0-0.875-0.074-1.542-1.009-1.542
				c-2.616,0-2.953,7.072-3.066,8.943c-0.336,4.075-0.075,5.367-6.355,5.867c-1.459,0.124-2.467-0.417-2.467-2.246
				c0-1.541,1.495-8.234,1.495-11.73c0-0.792-0.113-1.372-0.898-1.372c-0.822,0-1.794,0-1.794-1.291
				c0-1.538,1.869-2.451,2.915-3.035c1.759-0.957,3.777-1.958,5.795-1.958c1.346,0,1.906,1,2.018,2.371
				c0,0.378,0.074,1.377,0.561,1.377c0.898,0,3.926-3.747,7.44-3.747C184.051,35.063,185.694,36.063,186.218,38.015z"/>
		</g>
		<g>
			<path d="M220.534,36.457c-0.149,2.497-0.822,6.24-1.122,10.731c-0.037,0.665-0.188,1.993,0.039,2.661
				c0.148,0.498,0.409,0.46,0.821,0.498c0.56,0.086,0.934,0.376,0.934,1.038c0,2.704-5.457,5.118-7.514,5.118
				c-3.327,0-1.72-3.535-2.915-3.535c-0.973,0-2.804,3.741-6.655,3.741c-3.441,0-4.859-3.367-4.71-6.739
				c0.299-7.484,4.486-14.472,10.242-15.051c2.618-0.292,3.665,1.702,4.749,1.702c0.411,0,1.084-0.456,1.421-0.664
				c1.047-0.581,2.018-1.083,3.179-1.083C220.048,34.874,220.607,35.294,220.534,36.457z M212.945,40.864
				c0-0.537-0.15-1.372-0.749-1.329c-1.98,0.164-4.485,6.363-4.449,9.026c0,0.62,0.112,1.702,0.861,1.619
				C210.588,50.015,213.018,42.943,212.945,40.864z"/>
		</g>
		<g>
			<path d="M237.266,41.151c-1.52,0-1.52-2.419-2.963-2.419c-0.646,0-1.179,0.501-1.179,1.209c0,2.712,5.433,4.715,5.433,9.72
				c0,5.173-5.548,7.05-9.384,7.05c-2.431,0-6.915-0.751-6.915-4.254c0-1.252,0.722-2.962,2.014-2.962
				c1.596,0,1.33,2.796,3.229,2.796c0.759,0,1.633-0.46,1.633-1.377c0-2.211-4.748-4.38-4.748-9.052
				c0-5.005,5.204-7.259,9.118-7.259c1.975,0,5.774,0.71,5.774,3.504C239.278,39.357,238.594,41.151,237.266,41.151z"/>
		</g>
	</g>
</g>
</svg>
